<svg width="571" height="571" viewBox="0 0 571 571" fill="none" xmlns="http://www.w3.org/2000/svg">
<path d="M285.817 285.181L118.781 55.2734C169.569 18.3759 223.037 1 285.817 1V285.181Z" fill="#3EABEE" stroke="black" stroke-width="2" stroke-miterlimit="10"/>
<path d="M285.819 285.181L15.5508 197.368C34.9519 137.659 67.9948 92.1785 118.782 55.2734L285.819 285.181Z" fill="#A6B36D" stroke="black" stroke-width="2" stroke-miterlimit="10"/>
<path d="M285.819 285.18L15.5508 373.001C-3.85028 313.292 -3.85028 257.076 15.5508 197.367L285.826 285.188L285.819 285.18Z" fill="#FEB85B" stroke="black" stroke-width="2" stroke-miterlimit="10"/>
<path d="M285.818 285.181V569.362C160.257 569.362 54.3452 492.413 15.543 372.995L285.818 285.174V285.181Z" fill="#FEB195" stroke="black" stroke-width="2" stroke-miterlimit="10"/>
<path d="M285.818 285.181V1C442.766 1 569.999 128.233 569.999 285.181C569.999 442.129 442.766 569.361 285.818 569.361V285.181Z" fill="#FBDB46" stroke="black" stroke-width="2" stroke-miterlimit="10"/>
<path d="M429.334 323.6H413.134V332.15C413.834 331.283 414.834 330.583 416.134 330.05C417.434 329.483 418.817 329.2 420.284 329.2C422.95 329.2 425.134 329.783 426.834 330.95C428.534 332.117 429.767 333.617 430.534 335.45C431.3 337.25 431.684 339.183 431.684 341.25C431.684 345.083 430.584 348.167 428.384 350.5C426.217 352.833 423.117 354 419.084 354C415.284 354 412.25 353.05 409.984 351.15C407.717 349.25 406.434 346.767 406.134 343.7H412.934C413.234 345.033 413.9 346.1 414.934 346.9C416 347.7 417.35 348.1 418.984 348.1C420.95 348.1 422.434 347.483 423.434 346.25C424.434 345.017 424.934 343.383 424.934 341.35C424.934 339.283 424.417 337.717 423.384 336.65C422.384 335.55 420.9 335 418.934 335C417.534 335 416.367 335.35 415.434 336.05C414.5 336.75 413.834 337.683 413.434 338.85H406.734V317.45H429.334V323.6ZM437.011 335.3C437.011 329.533 438.045 325.017 440.111 321.75C442.211 318.483 445.678 316.85 450.511 316.85C455.345 316.85 458.795 318.483 460.861 321.75C462.961 325.017 464.011 329.533 464.011 335.3C464.011 341.1 462.961 345.65 460.861 348.95C458.795 352.25 455.345 353.9 450.511 353.9C445.678 353.9 442.211 352.25 440.111 348.95C438.045 345.65 437.011 341.1 437.011 335.3ZM457.111 335.3C457.111 332.833 456.945 330.767 456.611 329.1C456.311 327.4 455.678 326.017 454.711 324.95C453.778 323.883 452.378 323.35 450.511 323.35C448.645 323.35 447.228 323.883 446.261 324.95C445.328 326.017 444.695 327.4 444.361 329.1C444.061 330.767 443.911 332.833 443.911 335.3C443.911 337.833 444.061 339.967 444.361 341.7C444.661 343.4 445.295 344.783 446.261 345.85C447.228 346.883 448.645 347.4 450.511 347.4C452.378 347.4 453.795 346.883 454.761 345.85C455.728 344.783 456.361 343.4 456.661 341.7C456.961 339.967 457.111 337.833 457.111 335.3ZM468.536 326.5C468.536 323.967 469.269 321.983 470.736 320.55C472.236 319.117 474.152 318.4 476.486 318.4C478.819 318.4 480.719 319.117 482.186 320.55C483.686 321.983 484.436 323.967 484.436 326.5C484.436 329.067 483.686 331.067 482.186 332.5C480.719 333.933 478.819 334.65 476.486 334.65C474.152 334.65 472.236 333.933 470.736 332.5C469.269 331.067 468.536 329.067 468.536 326.5ZM500.636 319L480.986 354H474.186L493.786 319H500.636ZM476.436 322.6C474.602 322.6 473.686 323.9 473.686 326.5C473.686 329.133 474.602 330.45 476.436 330.45C477.336 330.45 478.036 330.133 478.536 329.5C479.036 328.833 479.286 327.833 479.286 326.5C479.286 323.9 478.336 322.6 476.436 322.6ZM490.486 346.45C490.486 343.883 491.219 341.9 492.686 340.5C494.186 339.067 496.102 338.35 498.436 338.35C500.769 338.35 502.652 339.067 504.086 340.5C505.552 341.9 506.286 343.883 506.286 346.45C506.286 349.017 505.552 351.017 504.086 352.45C502.652 353.883 500.769 354.6 498.436 354.6C496.069 354.6 494.152 353.883 492.686 352.45C491.219 351.017 490.486 349.017 490.486 346.45ZM498.386 342.55C496.486 342.55 495.536 343.85 495.536 346.45C495.536 349.083 496.486 350.4 498.386 350.4C500.252 350.4 501.186 349.083 501.186 346.45C501.186 343.85 500.252 342.55 498.386 342.55Z" fill="black"/>
<path d="M177.853 51V44.55H189.903V81H182.703V51H177.853ZM196.818 62.3C196.818 56.5333 197.851 52.0167 199.918 48.75C202.018 45.4833 205.485 43.85 210.318 43.85C215.151 43.85 218.601 45.4833 220.668 48.75C222.768 52.0167 223.818 56.5333 223.818 62.3C223.818 68.1 222.768 72.65 220.668 75.95C218.601 79.25 215.151 80.9 210.318 80.9C205.485 80.9 202.018 79.25 199.918 75.95C197.851 72.65 196.818 68.1 196.818 62.3ZM216.918 62.3C216.918 59.8333 216.751 57.7667 216.418 56.1C216.118 54.4 215.485 53.0167 214.518 51.95C213.585 50.8833 212.185 50.35 210.318 50.35C208.451 50.35 207.035 50.8833 206.068 51.95C205.135 53.0167 204.501 54.4 204.168 56.1C203.868 57.7667 203.718 59.8333 203.718 62.3C203.718 64.8333 203.868 66.9667 204.168 68.7C204.468 70.4 205.101 71.7833 206.068 72.85C207.035 73.8833 208.451 74.4 210.318 74.4C212.185 74.4 213.601 73.8833 214.568 72.85C215.535 71.7833 216.168 70.4 216.468 68.7C216.768 66.9667 216.918 64.8333 216.918 62.3ZM228.342 53.5C228.342 50.9667 229.076 48.9833 230.542 47.55C232.042 46.1167 233.959 45.4 236.292 45.4C238.626 45.4 240.526 46.1167 241.992 47.55C243.492 48.9833 244.242 50.9667 244.242 53.5C244.242 56.0667 243.492 58.0667 241.992 59.5C240.526 60.9333 238.626 61.65 236.292 61.65C233.959 61.65 232.042 60.9333 230.542 59.5C229.076 58.0667 228.342 56.0667 228.342 53.5ZM260.442 46L240.792 81H233.992L253.592 46H260.442ZM236.242 49.6C234.409 49.6 233.492 50.9 233.492 53.5C233.492 56.1333 234.409 57.45 236.242 57.45C237.142 57.45 237.842 57.1333 238.342 56.5C238.842 55.8333 239.092 54.8333 239.092 53.5C239.092 50.9 238.142 49.6 236.242 49.6ZM250.292 73.45C250.292 70.8833 251.026 68.9 252.492 67.5C253.992 66.0667 255.909 65.35 258.242 65.35C260.576 65.35 262.459 66.0667 263.892 67.5C265.359 68.9 266.092 70.8833 266.092 73.45C266.092 76.0167 265.359 78.0167 263.892 79.45C262.459 80.8833 260.576 81.6 258.242 81.6C255.876 81.6 253.959 80.8833 252.492 79.45C251.026 78.0167 250.292 76.0167 250.292 73.45ZM258.192 69.55C256.292 69.55 255.342 70.85 255.342 73.45C255.342 76.0833 256.292 77.4 258.192 77.4C260.059 77.4 260.992 76.0833 260.992 73.45C260.992 70.85 260.059 69.55 258.192 69.55Z" fill="black"/>
<path d="M68.8527 148V141.55H80.9027V178H73.7027V148H68.8527ZM87.818 159.3C87.818 153.533 88.8513 149.017 90.918 145.75C93.018 142.483 96.4846 140.85 101.318 140.85C106.151 140.85 109.601 142.483 111.668 145.75C113.768 149.017 114.818 153.533 114.818 159.3C114.818 165.1 113.768 169.65 111.668 172.95C109.601 176.25 106.151 177.9 101.318 177.9C96.4846 177.9 93.018 176.25 90.918 172.95C88.8513 169.65 87.818 165.1 87.818 159.3ZM107.918 159.3C107.918 156.833 107.751 154.767 107.418 153.1C107.118 151.4 106.485 150.017 105.518 148.95C104.585 147.883 103.185 147.35 101.318 147.35C99.4513 147.35 98.0346 147.883 97.068 148.95C96.1346 150.017 95.5013 151.4 95.168 153.1C94.868 154.767 94.718 156.833 94.718 159.3C94.718 161.833 94.868 163.967 95.168 165.7C95.468 167.4 96.1013 168.783 97.068 169.85C98.0346 170.883 99.4513 171.4 101.318 171.4C103.185 171.4 104.601 170.883 105.568 169.85C106.535 168.783 107.168 167.4 107.468 165.7C107.768 163.967 107.918 161.833 107.918 159.3ZM119.342 150.5C119.342 147.967 120.076 145.983 121.542 144.55C123.042 143.117 124.959 142.4 127.292 142.4C129.626 142.4 131.526 143.117 132.992 144.55C134.492 145.983 135.242 147.967 135.242 150.5C135.242 153.067 134.492 155.067 132.992 156.5C131.526 157.933 129.626 158.65 127.292 158.65C124.959 158.65 123.042 157.933 121.542 156.5C120.076 155.067 119.342 153.067 119.342 150.5ZM151.442 143L131.792 178H124.992L144.592 143H151.442ZM127.242 146.6C125.409 146.6 124.492 147.9 124.492 150.5C124.492 153.133 125.409 154.45 127.242 154.45C128.142 154.45 128.842 154.133 129.342 153.5C129.842 152.833 130.092 151.833 130.092 150.5C130.092 147.9 129.142 146.6 127.242 146.6ZM141.292 170.45C141.292 167.883 142.026 165.9 143.492 164.5C144.992 163.067 146.909 162.35 149.242 162.35C151.576 162.35 153.459 163.067 154.892 164.5C156.359 165.9 157.092 167.883 157.092 170.45C157.092 173.017 156.359 175.017 154.892 176.45C153.459 177.883 151.576 178.6 149.242 178.6C146.876 178.6 144.959 177.883 143.492 176.45C142.026 175.017 141.292 173.017 141.292 170.45ZM149.192 166.55C147.292 166.55 146.342 167.85 146.342 170.45C146.342 173.083 147.292 174.4 149.192 174.4C151.059 174.4 151.992 173.083 151.992 170.45C151.992 167.85 151.059 166.55 149.192 166.55Z" fill="black"/>
<path d="M36.8527 273V266.55H48.9027V303H41.7027V273H36.8527ZM55.818 284.3C55.818 278.533 56.8513 274.017 58.918 270.75C61.018 267.483 64.4846 265.85 69.318 265.85C74.1513 265.85 77.6013 267.483 79.668 270.75C81.768 274.017 82.818 278.533 82.818 284.3C82.818 290.1 81.768 294.65 79.668 297.95C77.6013 301.25 74.1513 302.9 69.318 302.9C64.4846 302.9 61.018 301.25 58.918 297.95C56.8513 294.65 55.818 290.1 55.818 284.3ZM75.918 284.3C75.918 281.833 75.7513 279.767 75.418 278.1C75.118 276.4 74.4846 275.017 73.518 273.95C72.5846 272.883 71.1846 272.35 69.318 272.35C67.4513 272.35 66.0346 272.883 65.068 273.95C64.1346 275.017 63.5013 276.4 63.168 278.1C62.868 279.767 62.718 281.833 62.718 284.3C62.718 286.833 62.868 288.967 63.168 290.7C63.468 292.4 64.1013 293.783 65.068 294.85C66.0346 295.883 67.4513 296.4 69.318 296.4C71.1846 296.4 72.6013 295.883 73.568 294.85C74.5346 293.783 75.168 292.4 75.468 290.7C75.768 288.967 75.918 286.833 75.918 284.3ZM87.3422 275.5C87.3422 272.967 88.0755 270.983 89.5422 269.55C91.0422 268.117 92.9589 267.4 95.2922 267.4C97.6255 267.4 99.5255 268.117 100.992 269.55C102.492 270.983 103.242 272.967 103.242 275.5C103.242 278.067 102.492 280.067 100.992 281.5C99.5255 282.933 97.6255 283.65 95.2922 283.65C92.9589 283.65 91.0422 282.933 89.5422 281.5C88.0755 280.067 87.3422 278.067 87.3422 275.5ZM119.442 268L99.7922 303H92.9922L112.592 268H119.442ZM95.2422 271.6C93.4089 271.6 92.4922 272.9 92.4922 275.5C92.4922 278.133 93.4089 279.45 95.2422 279.45C96.1422 279.45 96.8422 279.133 97.3422 278.5C97.8422 277.833 98.0922 276.833 98.0922 275.5C98.0922 272.9 97.1422 271.6 95.2422 271.6ZM109.292 295.45C109.292 292.883 110.026 290.9 111.492 289.5C112.992 288.067 114.909 287.35 117.242 287.35C119.576 287.35 121.459 288.067 122.892 289.5C124.359 290.9 125.092 292.883 125.092 295.45C125.092 298.017 124.359 300.017 122.892 301.45C121.459 302.883 119.576 303.6 117.242 303.6C114.876 303.6 112.959 302.883 111.492 301.45C110.026 300.017 109.292 298.017 109.292 295.45ZM117.192 291.55C115.292 291.55 114.342 292.85 114.342 295.45C114.342 298.083 115.292 299.4 117.192 299.4C119.059 299.4 119.992 298.083 119.992 295.45C119.992 292.85 119.059 291.55 117.192 291.55Z" fill="black"/>
<path d="M132.105 447.1C135.305 444.433 137.855 442.217 139.755 440.45C141.655 438.65 143.238 436.783 144.505 434.85C145.772 432.917 146.405 431.017 146.405 429.15C146.405 427.45 146.005 426.117 145.205 425.15C144.405 424.183 143.172 423.7 141.505 423.7C139.838 423.7 138.555 424.267 137.655 425.4C136.755 426.5 136.288 428.017 136.255 429.95H129.455C129.588 425.95 130.772 422.917 133.005 420.85C135.272 418.783 138.138 417.75 141.605 417.75C145.405 417.75 148.322 418.767 150.355 420.8C152.388 422.8 153.405 425.45 153.405 428.75C153.405 431.35 152.705 433.833 151.305 436.2C149.905 438.567 148.305 440.633 146.505 442.4C144.705 444.133 142.355 446.233 139.455 448.7H154.205V454.5H129.505V449.3L132.105 447.1ZM158.616 436.3C158.616 430.533 159.649 426.017 161.716 422.75C163.816 419.483 167.282 417.85 172.116 417.85C176.949 417.85 180.399 419.483 182.466 422.75C184.566 426.017 185.616 430.533 185.616 436.3C185.616 442.1 184.566 446.65 182.466 449.95C180.399 453.25 176.949 454.9 172.116 454.9C167.282 454.9 163.816 453.25 161.716 449.95C159.649 446.65 158.616 442.1 158.616 436.3ZM178.716 436.3C178.716 433.833 178.549 431.767 178.216 430.1C177.916 428.4 177.282 427.017 176.316 425.95C175.382 424.883 173.982 424.35 172.116 424.35C170.249 424.35 168.832 424.883 167.866 425.95C166.932 427.017 166.299 428.4 165.966 430.1C165.666 431.767 165.516 433.833 165.516 436.3C165.516 438.833 165.666 440.967 165.966 442.7C166.266 444.4 166.899 445.783 167.866 446.85C168.832 447.883 170.249 448.4 172.116 448.4C173.982 448.4 175.399 447.883 176.366 446.85C177.332 445.783 177.966 444.4 178.266 442.7C178.566 440.967 178.716 438.833 178.716 436.3ZM190.14 427.5C190.14 424.967 190.873 422.983 192.34 421.55C193.84 420.117 195.757 419.4 198.09 419.4C200.423 419.4 202.323 420.117 203.79 421.55C205.29 422.983 206.04 424.967 206.04 427.5C206.04 430.067 205.29 432.067 203.79 433.5C202.323 434.933 200.423 435.65 198.09 435.65C195.757 435.65 193.84 434.933 192.34 433.5C190.873 432.067 190.14 430.067 190.14 427.5ZM222.24 420L202.59 455H195.79L215.39 420H222.24ZM198.04 423.6C196.207 423.6 195.29 424.9 195.29 427.5C195.29 430.133 196.207 431.45 198.04 431.45C198.94 431.45 199.64 431.133 200.14 430.5C200.64 429.833 200.89 428.833 200.89 427.5C200.89 424.9 199.94 423.6 198.04 423.6ZM212.09 447.45C212.09 444.883 212.823 442.9 214.29 441.5C215.79 440.067 217.707 439.35 220.04 439.35C222.373 439.35 224.257 440.067 225.69 441.5C227.157 442.9 227.89 444.883 227.89 447.45C227.89 450.017 227.157 452.017 225.69 453.45C224.257 454.883 222.373 455.6 220.04 455.6C217.673 455.6 215.757 454.883 214.29 453.45C212.823 452.017 212.09 450.017 212.09 447.45ZM219.99 443.55C218.09 443.55 217.14 444.85 217.14 447.45C217.14 450.083 218.09 451.4 219.99 451.4C221.857 451.4 222.79 450.083 222.79 447.45C222.79 444.85 221.857 443.55 219.99 443.55Z" fill="black"/>
</svg>
