<svg width="248" height="100" viewBox="0 0 248 100" fill="none" xmlns="http://www.w3.org/2000/svg">
<path d="M37.5123 53.1675C-0.905722 51.7954 -2.50648 80.0373 1.49541 94.3297C2.98365 104.62 114.69 97.7602 128.411 97.7602C142.132 97.7602 239.892 94.3297 246.752 77.1791C252.24 63.4587 207.877 46.3076 185.009 39.4471C188.439 37.1603 189.811 29.1566 167.858 15.4358C145.905 1.71509 125.552 9.71885 118.12 15.4358C109.888 4.45924 89.5354 0.571697 80.3882 0C43.3422 0 36.3685 35.445 37.5123 53.1675Z" fill="white"/>
<mask id="mask0_5119_275" style="mask-type:alpha" maskUnits="userSpaceOnUse" x="0" y="0" width="248" height="100">
<path d="M37.5123 53.1675C-0.905722 51.7954 -2.50648 80.0373 1.49541 94.3297C2.98365 104.62 114.69 97.7602 128.411 97.7602C142.132 97.7602 239.892 94.3297 246.752 77.1791C252.24 63.4587 207.877 46.3076 185.009 39.4471C188.439 37.1603 189.811 29.1566 167.858 15.4358C145.905 1.71509 125.552 9.71885 118.12 15.4358C109.888 4.45924 89.5354 0.571697 80.3882 0C43.3422 0 36.3685 35.445 37.5123 53.1675Z" fill="white"/>
</mask>
<g mask="url(#mask0_5119_275)">
<path d="M58.0922 77.1787C53.976 77.1787 9.49793 90.8995 -12.2266 97.7598V121.771L63.2375 116.626H190.154C197.015 116.626 265.618 106.336 269.048 106.336C272.479 106.336 270.764 77.1787 269.048 77.1787C267.333 77.1787 233.032 44.5921 231.316 41.1621C229.601 37.7321 188.93 41.2151 185.5 39.5C182.07 37.7849 185.009 63.4583 181.579 73.7489C178.149 84.0394 148.992 77.1787 143.847 73.7489C138.702 70.319 123.266 61.7429 104.4 60.0278C85.5337 58.3127 63.2375 77.1787 58.0922 77.1787Z" fill="#D4F0FC"/>
</g>
</svg>
