<svg width="1383" height="672" viewBox="0 0 1383 672" fill="none" xmlns="http://www.w3.org/2000/svg">
<mask id="mask0_7110_16" style="mask-type:alpha" maskUnits="userSpaceOnUse" x="0" y="0" width="1383" height="672">
<rect width="1383" height="672" fill="#D9D9D9"/>
</mask>
<g mask="url(#mask0_7110_16)">
<mask id="path-2-inside-1_7110_16" fill="white">
<path fill-rule="evenodd" clip-rule="evenodd" d="M725.156 0.164062C805.621 0.164062 871.779 61.4158 879.549 139.837C907.958 108.121 949.226 88.1641 995.156 88.1641C1073.71 88.1641 1138.63 146.544 1148.9 222.285C1161.56 218.944 1174.86 217.164 1188.58 217.164C1274.27 217.164 1343.74 286.63 1343.74 372.32C1343.74 388.434 1341.28 403.975 1336.72 418.588C1364.97 441.694 1383 476.825 1383 516.167C1383 585.755 1326.59 642.167 1257 642.167C1229.88 642.167 1204.77 633.602 1184.21 619.029C1160.41 633.89 1132.29 642.478 1102.16 642.478C1065.39 642.478 1031.6 629.688 1005.02 608.313C986.473 616.146 966.09 620.476 944.695 620.476C893.222 620.476 847.603 595.411 819.378 556.82C801.649 622.994 741.263 671.72 669.496 671.72C603.832 671.72 547.696 630.93 525.043 573.306C499.329 592.219 467.571 603.394 433.203 603.394C364.256 603.394 305.813 558.422 285.606 496.212C257.983 539.005 209.878 567.333 155.156 567.333C69.4656 567.333 0 497.868 0 412.177C0 326.487 69.4656 257.022 155.156 257.022C155.845 257.022 156.533 257.026 157.219 257.035C168.026 181.903 232.664 124.164 310.787 124.164C339.519 124.164 366.427 131.974 389.504 145.586C417.404 118.699 455.349 102.164 497.156 102.164C524.923 102.164 550.987 109.458 573.535 122.235C588.694 52.4401 650.82 0.164062 725.156 0.164062Z"/>
</mask>
<path fill-rule="evenodd" clip-rule="evenodd" d="M725.156 0.164062C805.621 0.164062 871.779 61.4158 879.549 139.837C907.958 108.121 949.226 88.1641 995.156 88.1641C1073.71 88.1641 1138.63 146.544 1148.9 222.285C1161.56 218.944 1174.86 217.164 1188.58 217.164C1274.27 217.164 1343.74 286.63 1343.74 372.32C1343.74 388.434 1341.28 403.975 1336.72 418.588C1364.97 441.694 1383 476.825 1383 516.167C1383 585.755 1326.59 642.167 1257 642.167C1229.88 642.167 1204.77 633.602 1184.21 619.029C1160.41 633.89 1132.29 642.478 1102.16 642.478C1065.39 642.478 1031.6 629.688 1005.02 608.313C986.473 616.146 966.09 620.476 944.695 620.476C893.222 620.476 847.603 595.411 819.378 556.82C801.649 622.994 741.263 671.72 669.496 671.72C603.832 671.72 547.696 630.93 525.043 573.306C499.329 592.219 467.571 603.394 433.203 603.394C364.256 603.394 305.813 558.422 285.606 496.212C257.983 539.005 209.878 567.333 155.156 567.333C69.4656 567.333 0 497.868 0 412.177C0 326.487 69.4656 257.022 155.156 257.022C155.845 257.022 156.533 257.026 157.219 257.035C168.026 181.903 232.664 124.164 310.787 124.164C339.519 124.164 366.427 131.974 389.504 145.586C417.404 118.699 455.349 102.164 497.156 102.164C524.923 102.164 550.987 109.458 573.535 122.235C588.694 52.4401 650.82 0.164062 725.156 0.164062Z" fill="#FFEFDD"/>
<path d="M879.549 139.837L878.554 139.935L878.778 142.196L880.294 140.504L879.549 139.837ZM1148.9 222.285L1147.91 222.419L1148.06 223.54L1149.15 223.252L1148.9 222.285ZM1336.72 418.588L1335.77 418.29L1335.56 418.935L1336.09 419.362L1336.72 418.588ZM1184.21 619.029L1184.79 618.213L1184.25 617.828L1183.68 618.18L1184.21 619.029ZM1005.02 608.313L1005.64 607.534L1005.18 607.16L1004.63 607.392L1005.02 608.313ZM819.378 556.82L820.185 556.23L818.953 554.545L818.412 556.562L819.378 556.82ZM525.043 573.306L525.974 572.94L525.498 571.73L524.45 572.5L525.043 573.306ZM285.606 496.212L286.557 495.904L285.907 493.902L284.766 495.67L285.606 496.212ZM157.219 257.035L157.206 258.035L158.084 258.046L158.209 257.177L157.219 257.035ZM389.504 145.586L388.995 146.448L389.65 146.834L390.197 146.306L389.504 145.586ZM573.535 122.235L573.042 123.105L574.224 123.775L574.512 122.447L573.535 122.235ZM880.544 139.738C872.724 60.8107 806.14 -0.835938 725.156 -0.835938V1.16406C805.101 1.16406 870.834 62.0209 878.554 139.935L880.544 139.738ZM995.156 87.1641C948.93 87.1641 907.395 107.251 878.804 139.169L880.294 140.504C908.521 108.991 949.522 89.1641 995.156 89.1641V87.1641ZM1149.89 222.151C1139.56 145.921 1074.22 87.1641 995.156 87.1641V89.1641C1073.2 89.1641 1137.71 147.168 1147.91 222.419L1149.89 222.151ZM1188.58 216.164C1174.78 216.164 1161.39 217.955 1148.64 221.318L1149.15 223.252C1161.74 219.932 1174.95 218.164 1188.58 218.164V216.164ZM1344.74 372.32C1344.74 286.077 1274.82 216.164 1188.58 216.164V218.164C1273.72 218.164 1342.74 287.182 1342.74 372.32H1344.74ZM1337.67 418.886C1342.26 404.178 1344.74 388.537 1344.74 372.32H1342.74C1342.74 388.332 1340.29 403.773 1335.77 418.29L1337.67 418.886ZM1384 516.167C1384 476.512 1365.82 441.102 1337.35 417.814L1336.09 419.362C1364.11 442.287 1382 477.138 1382 516.167H1384ZM1257 643.167C1327.14 643.167 1384 586.307 1384 516.167H1382C1382 585.203 1326.04 641.167 1257 641.167V643.167ZM1183.63 619.844C1204.35 634.533 1229.67 643.167 1257 643.167V641.167C1230.1 641.167 1205.18 632.67 1184.79 618.213L1183.63 619.844ZM1102.16 643.478C1132.48 643.478 1160.78 634.834 1184.74 619.877L1183.68 618.18C1160.03 632.945 1132.09 641.478 1102.16 641.478V643.478ZM1004.39 609.093C1031.15 630.605 1065.15 643.478 1102.16 643.478V641.478C1065.62 641.478 1032.06 628.771 1005.64 607.534L1004.39 609.093ZM944.695 621.476C966.226 621.476 986.741 617.118 1005.41 609.235L1004.63 607.392C986.205 615.173 965.954 619.476 944.695 619.476V621.476ZM818.571 557.411C846.976 596.248 892.889 621.476 944.695 621.476V619.476C893.554 619.476 848.23 594.574 820.185 556.23L818.571 557.411ZM669.496 672.72C741.727 672.72 802.501 623.679 820.344 557.079L818.412 556.562C800.797 622.31 740.799 670.72 669.496 670.72V672.72ZM524.112 573.672C546.91 631.665 603.407 672.72 669.496 672.72V670.72C604.257 670.72 548.481 630.194 525.974 572.94L524.112 573.672ZM433.203 604.394C467.791 604.394 499.756 593.147 525.635 574.111L524.45 572.5C498.903 591.292 467.351 602.394 433.203 602.394V604.394ZM284.655 496.521C304.991 559.131 363.81 604.394 433.203 604.394V602.394C364.702 602.394 306.634 557.714 286.557 495.904L284.655 496.521ZM155.156 568.333C210.231 568.333 258.647 539.82 286.446 496.755L284.766 495.67C257.319 538.189 209.524 566.333 155.156 566.333V568.333ZM-1 412.177C-1 498.42 68.9134 568.333 155.156 568.333V566.333C70.0179 566.333 1 497.315 1 412.177H-1ZM155.156 256.022C68.9134 256.022 -1 325.935 -1 412.177H1C1 327.039 70.0179 258.022 155.156 258.022V256.022ZM157.232 256.035C156.541 256.026 155.849 256.022 155.156 256.022V258.022C155.84 258.022 156.524 258.026 157.206 258.035L157.232 256.035ZM310.787 123.164C232.159 123.164 167.106 181.275 156.23 256.893L158.209 257.177C168.946 182.53 233.168 125.164 310.787 125.164V123.164ZM390.012 144.725C366.785 131.024 339.702 123.164 310.787 123.164V125.164C339.335 125.164 366.068 132.923 388.995 146.448L390.012 144.725ZM497.156 101.164C455.08 101.164 416.889 117.807 388.81 144.866L390.197 146.306C417.919 119.592 455.618 103.164 497.156 103.164V101.164ZM574.028 121.365C551.333 108.505 525.1 101.164 497.156 101.164V103.164C524.746 103.164 550.64 110.411 573.042 123.105L574.028 121.365ZM725.156 -0.835938C650.34 -0.835938 587.815 51.7777 572.558 122.023L574.512 122.447C589.574 53.1024 651.3 1.16406 725.156 1.16406V-0.835938Z" fill="black" mask="url(#path-2-inside-1_7110_16)"/>
<mask id="mask1_7110_16" style="mask-type:alpha" maskUnits="userSpaceOnUse" x="-51" y="365" width="1576" height="598">
<ellipse cx="737" cy="664" rx="788" ry="299" fill="#D9D9D9"/>
</mask>
<g mask="url(#mask1_7110_16)">
<mask id="path-5-inside-2_7110_16" fill="white">
<path fill-rule="evenodd" clip-rule="evenodd" d="M725.156 -2.83496C805.621 -2.83496 871.779 58.4168 879.549 136.837C907.958 105.122 949.226 85.165 995.156 85.165C1073.71 85.165 1138.63 143.546 1148.9 219.288C1161.56 215.947 1174.86 214.167 1188.58 214.167C1274.27 214.167 1343.74 283.633 1343.74 369.323C1343.74 385.437 1341.28 400.977 1336.72 415.589C1364.97 438.696 1383 473.826 1383 513.168C1383 582.756 1326.59 639.168 1257 639.168C1229.88 639.168 1204.77 630.603 1184.21 616.031C1160.41 630.893 1132.29 639.481 1102.16 639.481C1065.39 639.481 1031.6 626.69 1005.01 605.315C986.472 613.147 966.089 617.477 944.695 617.477C893.222 617.477 847.603 592.412 819.378 553.822C801.65 619.997 741.263 668.723 669.496 668.723C603.832 668.723 547.696 627.932 525.043 570.309C499.329 589.222 467.571 600.397 433.203 600.397C364.256 600.397 305.813 555.425 285.606 493.215C257.983 536.007 209.878 564.336 155.156 564.336C69.4656 564.336 0 494.871 0 409.18C0 323.49 69.4656 254.024 155.156 254.024C155.845 254.024 156.532 254.029 157.219 254.038C168.025 178.905 232.663 121.165 310.787 121.165C339.519 121.165 366.427 128.975 389.504 142.587C417.404 115.7 455.349 99.165 497.156 99.165C524.923 99.165 550.987 106.459 573.535 119.236C588.694 49.4411 650.82 -2.83496 725.156 -2.83496Z"/>
</mask>
<path fill-rule="evenodd" clip-rule="evenodd" d="M725.156 -2.83496C805.621 -2.83496 871.779 58.4168 879.549 136.837C907.958 105.122 949.226 85.165 995.156 85.165C1073.71 85.165 1138.63 143.546 1148.9 219.288C1161.56 215.947 1174.86 214.167 1188.58 214.167C1274.27 214.167 1343.74 283.633 1343.74 369.323C1343.74 385.437 1341.28 400.977 1336.72 415.589C1364.97 438.696 1383 473.826 1383 513.168C1383 582.756 1326.59 639.168 1257 639.168C1229.88 639.168 1204.77 630.603 1184.21 616.031C1160.41 630.893 1132.29 639.481 1102.16 639.481C1065.39 639.481 1031.6 626.69 1005.01 605.315C986.472 613.147 966.089 617.477 944.695 617.477C893.222 617.477 847.603 592.412 819.378 553.822C801.65 619.997 741.263 668.723 669.496 668.723C603.832 668.723 547.696 627.932 525.043 570.309C499.329 589.222 467.571 600.397 433.203 600.397C364.256 600.397 305.813 555.425 285.606 493.215C257.983 536.007 209.878 564.336 155.156 564.336C69.4656 564.336 0 494.871 0 409.18C0 323.49 69.4656 254.024 155.156 254.024C155.845 254.024 156.532 254.029 157.219 254.038C168.025 178.905 232.663 121.165 310.787 121.165C339.519 121.165 366.427 128.975 389.504 142.587C417.404 115.7 455.349 99.165 497.156 99.165C524.923 99.165 550.987 106.459 573.535 119.236C588.694 49.4411 650.82 -2.83496 725.156 -2.83496Z" fill="white"/>
<path d="M879.549 136.837L878.554 136.936L878.778 139.197L880.294 137.505L879.549 136.837ZM1148.9 219.288L1147.91 219.422L1148.06 220.543L1149.15 220.255L1148.9 219.288ZM1336.72 415.589L1335.77 415.291L1335.56 415.936L1336.09 416.363L1336.72 415.589ZM1184.21 616.031L1184.79 615.215L1184.25 614.83L1183.68 615.182L1184.21 616.031ZM1005.01 605.315L1005.64 604.536L1005.18 604.161L1004.63 604.394L1005.01 605.315ZM819.378 553.822L820.186 553.232L818.953 551.546L818.413 553.563L819.378 553.822ZM525.043 570.309L525.974 569.943L525.498 568.733L524.45 569.503L525.043 570.309ZM285.606 493.215L286.557 492.906L285.907 490.905L284.766 492.673L285.606 493.215ZM157.219 254.038L157.206 255.038L158.084 255.049L158.209 254.18L157.219 254.038ZM389.504 142.587L388.995 143.449L389.65 143.835L390.197 143.307L389.504 142.587ZM573.535 119.236L573.042 120.106L574.224 120.776L574.512 119.448L573.535 119.236ZM880.544 136.739C872.724 57.8117 806.14 -3.83496 725.156 -3.83496V-1.83496C805.101 -1.83496 870.834 59.0219 878.554 136.936L880.544 136.739ZM995.156 84.165C948.93 84.165 907.395 104.252 878.804 136.17L880.294 137.505C908.521 105.992 949.522 86.165 995.156 86.165V84.165ZM1149.89 219.153C1139.56 142.923 1074.22 84.165 995.156 84.165V86.165C1073.21 86.165 1137.71 144.169 1147.91 219.422L1149.89 219.153ZM1188.58 213.167C1174.78 213.167 1161.39 214.958 1148.64 218.321L1149.15 220.255C1161.74 216.935 1174.95 215.167 1188.58 215.167V213.167ZM1344.74 369.323C1344.74 283.08 1274.82 213.167 1188.58 213.167V215.167C1273.72 215.167 1342.74 284.185 1342.74 369.323H1344.74ZM1337.67 415.887C1342.26 401.179 1344.74 385.539 1344.74 369.323H1342.74C1342.74 385.335 1340.29 400.774 1335.77 415.291L1337.67 415.887ZM1384 513.168C1384 473.514 1365.82 438.103 1337.35 414.815L1336.09 416.363C1364.11 439.288 1382 474.139 1382 513.168H1384ZM1257 640.168C1327.14 640.168 1384 583.308 1384 513.168H1382C1382 582.204 1326.04 638.168 1257 638.168V640.168ZM1183.64 616.846C1204.35 631.535 1229.67 640.168 1257 640.168V638.168C1230.1 638.168 1205.18 629.671 1184.79 615.215L1183.64 616.846ZM1102.16 640.481C1132.48 640.481 1160.79 631.837 1184.74 616.879L1183.68 615.182C1160.03 629.948 1132.09 638.481 1102.16 638.481V640.481ZM1004.39 606.094C1031.15 627.607 1065.15 640.481 1102.16 640.481V638.481C1065.62 638.481 1032.06 625.773 1005.64 604.536L1004.39 606.094ZM944.695 618.477C966.225 618.477 986.74 614.119 1005.4 606.236L1004.63 604.394C986.204 612.174 965.953 616.477 944.695 616.477V618.477ZM818.571 554.412C846.976 593.249 892.89 618.477 944.695 618.477V616.477C893.555 616.477 848.23 591.575 820.186 553.232L818.571 554.412ZM669.496 669.723C741.727 669.723 802.502 620.682 820.344 554.081L818.413 553.563C800.798 619.312 740.799 667.723 669.496 667.723V669.723ZM524.112 570.674C546.91 628.668 603.407 669.723 669.496 669.723V667.723C604.257 667.723 548.481 627.197 525.974 569.943L524.112 570.674ZM433.203 601.397C467.791 601.397 499.756 590.15 525.635 571.114L524.45 569.503C498.903 588.295 467.351 599.397 433.203 599.397V601.397ZM284.655 493.524C304.991 556.134 363.81 601.397 433.203 601.397V599.397C364.702 599.397 306.634 554.716 286.557 492.906L284.655 493.524ZM155.156 565.336C210.231 565.336 258.647 536.823 286.446 493.758L284.766 492.673C257.319 535.192 209.524 563.336 155.156 563.336V565.336ZM-1 409.18C-1 495.423 68.9134 565.336 155.156 565.336V563.336C70.0179 563.336 1 494.318 1 409.18H-1ZM155.156 253.024C68.9134 253.024 -1 322.938 -1 409.18H1C1 324.042 70.0179 255.024 155.156 255.024V253.024ZM157.232 253.038C156.541 253.029 155.849 253.024 155.156 253.024V255.024C155.84 255.024 156.524 255.029 157.206 255.038L157.232 253.038ZM310.787 120.165C232.159 120.165 167.105 178.277 156.229 253.895L158.209 254.18C168.945 179.532 233.167 122.165 310.787 122.165V120.165ZM390.012 141.726C366.785 128.025 339.702 120.165 310.787 120.165V122.165C339.335 122.165 366.068 129.924 388.995 143.449L390.012 141.726ZM497.156 98.165C455.08 98.165 416.889 114.808 388.81 141.867L390.197 143.307C417.919 116.593 455.618 100.165 497.156 100.165V98.165ZM574.028 118.366C551.333 105.506 525.1 98.165 497.156 98.165V100.165C524.746 100.165 550.64 107.412 573.042 120.106L574.028 118.366ZM725.156 -3.83496C650.34 -3.83496 587.815 48.7787 572.558 119.024L574.512 119.448C589.574 50.1034 651.3 -1.83496 725.156 -1.83496V-3.83496Z" fill="black" mask="url(#path-5-inside-2_7110_16)"/>
</g>
<ellipse cx="101.5" cy="101" rx="101.5" ry="101" transform="matrix(1 0 0 -1 765 567.164)" fill="#FFEFDD"/>
<circle cx="72" cy="72" r="72" transform="matrix(1 0 0 -1 367 392)" fill="#FFEFDD"/>
<circle cx="53.5" cy="53.5" r="53.5" transform="matrix(1 0 0 -1 480 336)" fill="#FFEFDD"/>
<circle cx="53.5" cy="53.5" r="53.5" transform="matrix(1 0 0 -1 1005 287)" fill="#FFEFDD"/>
<ellipse cx="101.5" cy="101" rx="101.5" ry="101" transform="matrix(1 0 0 -1 950 567.164)" fill="#FFEFDD"/>
</g>
</svg>
