<svg width="599" height="110" viewBox="0 0 599 110" fill="none" xmlns="http://www.w3.org/2000/svg">
<path d="M18.4546 52.3333C19.3401 52.2069 20.0879 55.8647 20.3511 57.7094C30.8395 56.2881 53.5874 52.5602 60.6715 49.0197C67.7556 45.4791 60.4621 40.1653 55.9298 37.951C50.3663 25.554 41.0685 29.3051 37.1151 32.7303C31.5503 27.9227 29.4205 31.0425 29.0512 33.2034C25.6363 30.7995 23.6226 33.6769 23.0426 35.416C17.6034 36.5536 18.4561 42.8466 19.5624 45.851C17.3485 47.748 17.3478 52.4912 18.4546 52.3333Z" fill="white"/>
<path fill-rule="evenodd" clip-rule="evenodd" d="M45.8921 29.9068C42.5523 29.7322 39.3616 31.4453 37.4421 33.1083L37.1151 33.3915L36.7878 33.1088C34.0402 30.735 32.3092 30.4698 31.3006 30.8254C30.2785 31.1856 29.7156 32.2814 29.5436 33.2878L29.4102 34.0681L28.7629 33.6124C27.9661 33.0514 27.2873 32.8239 26.7226 32.7896C26.1618 32.7556 25.6749 32.9096 25.2513 33.1784C24.3819 33.73 23.7866 34.7646 23.5165 35.5744L23.4257 35.8468L23.1446 35.9056C21.8842 36.1692 21.0205 36.7221 20.4314 37.4252C19.8372 38.1344 19.4958 39.0288 19.3415 40.0112C19.0308 41.9891 19.4954 44.2234 20.0312 45.6783L20.1513 46.0046L19.8873 46.2308C18.9206 47.0592 18.3931 48.5681 18.2604 49.912C18.1947 50.5771 18.2317 51.1497 18.332 51.5247C18.3756 51.6875 18.4233 51.7831 18.4565 51.8312C18.726 51.8167 18.9486 51.9378 19.1064 52.0745C19.2743 52.2198 19.4106 52.4156 19.523 52.6159C19.7498 53.0199 19.9471 53.5662 20.1156 54.1419C20.4 55.1132 20.6263 56.2533 20.7707 57.1476C26.0257 56.4258 34.0591 55.1714 41.6909 53.6688C45.6269 52.8938 49.451 52.0538 52.7296 51.1879C56.0173 50.3197 58.7252 49.4333 60.4475 48.5725C62.156 47.7186 62.8762 46.8177 63.0693 45.9939C63.263 45.1676 62.9656 44.2536 62.2534 43.2841C60.8228 41.3368 57.957 39.4982 55.7099 38.4004L55.5473 38.321L55.4732 38.1559C52.7475 32.0822 49.1732 30.0783 45.8921 29.9068ZM56.3111 37.5819C53.4805 31.3828 49.6587 29.1023 45.9443 28.9081C42.4481 28.7253 39.1796 30.4007 37.1162 32.0766C34.4607 29.8749 32.4481 29.3606 30.9682 29.8822C29.7393 30.3154 29.0547 31.4011 28.7316 32.4103C28.0464 32.0255 27.3961 31.8286 26.7831 31.7914C25.9877 31.7432 25.2947 31.9665 24.7155 32.334C23.6853 32.9877 23.0125 34.0957 22.6649 34.9896C21.3452 35.3173 20.3635 35.9491 19.6649 36.7829C18.9238 37.6675 18.5277 38.7474 18.3536 39.856C18.03 41.9159 18.4586 44.1596 18.9818 45.7091C17.9096 46.7947 17.3994 48.4548 17.2652 49.8137C17.1923 50.5518 17.2244 51.2539 17.366 51.7832C17.4358 52.0439 17.5431 52.3049 17.7139 52.5038C17.886 52.7042 18.1418 52.8567 18.4574 52.8355C18.5012 52.8753 18.5684 52.9582 18.6511 53.1055C18.8218 53.4095 18.9939 53.8693 19.1559 54.4228C19.4773 55.5208 19.7259 56.8709 19.8557 57.7802L19.9258 58.2717L20.4178 58.205C25.6696 57.4933 33.9887 56.2045 41.8841 54.65C45.8316 53.8727 49.6783 53.0281 52.985 52.1548C56.2827 51.2839 59.0748 50.3765 60.8946 49.467C62.7281 48.5507 63.7528 47.4597 64.0429 46.2221C64.3324 44.9871 63.8515 43.7705 63.0593 42.6921C61.5182 40.5943 58.5763 38.7089 56.3111 37.5819Z" fill="black"/>
<path d="M9.27663 90.9114L26.519 42.3733L31.5788 41.4255C34.3609 45.7266 40.8542 45.2217 43.7531 44.4316L60.6705 49.0197L61.7768 52.0241L47.5383 102.618C28.3107 108.434 14.019 97.2368 9.27663 90.9114Z" fill="#CBCCCE"/>
<path fill-rule="evenodd" clip-rule="evenodd" d="M61.0507 48.6046L62.3022 52.0033L47.9455 103.017L47.6832 103.097C28.1862 108.994 13.6962 97.6394 8.87675 91.2112L8.71587 90.9966L26.1444 41.9347L31.8167 40.8721L31.9988 41.1538C33.28 43.1345 35.4334 44.0399 37.6888 44.3421C39.9436 44.6442 42.2234 44.3302 43.6218 43.9491L43.753 43.9133L61.0507 48.6046ZM43.7521 44.9492C42.2443 45.3416 39.8982 45.647 37.5559 45.3332C35.2437 45.0234 32.8647 44.098 31.3496 41.977L26.8941 42.8116L9.83845 90.8239C14.6385 97.0518 28.5192 107.709 47.1317 102.218L61.2518 52.0445L60.2907 49.4346L43.7521 44.9492Z" fill="black"/>
<path d="M14.1785 88.8569L24.4609 58.0264C27.4961 61.5686 45.3306 66.0409 53.8685 67.8343L45.4835 97.7164C31.4426 100.623 18.7631 93.0213 14.1785 88.8569Z" fill="#ECA412"/>
<path fill-rule="evenodd" clip-rule="evenodd" d="M24.2676 57.0303L24.8422 57.7009C25.1681 58.0812 25.7229 58.5052 26.4998 58.9595C27.2697 59.4097 28.2277 59.8727 29.3323 60.3405C31.5411 61.276 34.3028 62.2173 37.2475 63.1074C43.1352 64.8871 49.7136 66.4501 53.9728 67.3448L54.4959 67.4546L45.8843 98.1442L45.5865 98.2059C31.328 101.158 18.4917 93.4487 13.8438 89.2268L13.6026 89.0077L24.2676 57.0303ZM24.6871 58.933L14.7583 88.703C19.4374 92.8199 31.62 99.9342 45.0863 97.2866L53.2445 68.2127C48.9628 67.2992 42.6447 65.7835 36.9581 64.0646C33.9976 63.1697 31.1979 62.2166 28.9423 61.2613C27.8146 60.7837 26.8146 60.302 25.9949 59.8227C25.4976 59.5318 25.0549 59.2352 24.6871 58.933Z" fill="black"/>
<path fill-rule="evenodd" clip-rule="evenodd" d="M28.762 46.2089C28.1124 46.1175 27.4811 46.3458 27.107 46.5878L26.5639 45.7482C27.0859 45.4105 27.9567 45.0857 28.9013 45.2186C29.8821 45.3566 30.8556 45.9758 31.5515 47.3682L30.657 47.8152C30.0884 46.6776 29.3756 46.2952 28.762 46.2089Z" fill="black"/>
<path fill-rule="evenodd" clip-rule="evenodd" d="M55.7659 53.744C55.1163 53.6526 54.485 53.881 54.1109 54.123L53.5678 53.2833C54.0898 52.9457 54.9606 52.6209 55.9052 52.7538C56.886 52.8917 57.8595 53.5109 58.5554 54.9033L57.6609 55.3504C57.0923 54.2128 56.3795 53.8303 55.7659 53.744Z" fill="black"/>
<path fill-rule="evenodd" clip-rule="evenodd" d="M38.8446 95.5012L51.3418 58.0303L52.2904 58.3467L39.7933 95.8176L38.8446 95.5012Z" fill="black"/>
<path fill-rule="evenodd" clip-rule="evenodd" d="M29.6746 89.8083L41.3809 54.709L42.3295 55.0254L30.6233 90.1247L29.6746 89.8083Z" fill="black"/>
<path fill-rule="evenodd" clip-rule="evenodd" d="M18.6063 88.2253L30.3125 53.126L31.2611 53.4424L19.5549 88.5417L18.6063 88.2253Z" fill="black"/>
<path fill-rule="evenodd" clip-rule="evenodd" d="M36.483 48.1856C35.4145 48.0911 34.326 48.6511 33.6425 49.2367L32.9918 48.4774C33.7843 47.7983 35.131 47.0622 36.5711 47.1895C38.0772 47.3226 39.4981 48.3771 40.4268 50.8989L39.4884 51.2445C38.6469 48.9594 37.4856 48.2742 36.483 48.1856Z" fill="black"/>
<path fill-rule="evenodd" clip-rule="evenodd" d="M46.472 51.1056C45.3264 51.0341 44.3314 51.5622 43.7734 52.0735L43.0978 51.3363C43.8049 50.6883 45.0553 50.0152 46.5343 50.1075C48.0425 50.2016 49.6738 51.0833 51.1283 53.3319L50.2887 53.875C48.9611 51.8225 47.5885 51.1752 46.472 51.1056Z" fill="black"/>
<path fill-rule="evenodd" clip-rule="evenodd" d="M54.0275 64.1984L56.5586 56.6094L57.5072 56.9258L54.9762 64.5148L54.0275 64.1984Z" fill="black"/>
<path fill-rule="evenodd" clip-rule="evenodd" d="M25.2521 55.6545L27.7832 48.0654L28.7318 48.3818L26.2008 55.9709L25.2521 55.6545Z" fill="black"/>
<path d="M106.49 30.9758C107.375 30.8495 108.123 34.5073 108.386 36.352C118.875 34.9307 141.623 31.2028 148.707 27.6622C155.791 24.1217 148.497 18.8079 143.965 16.5936C138.401 4.19655 129.104 7.94766 125.15 11.3728C119.585 6.56527 117.456 9.68511 117.086 11.846C113.671 9.44208 111.658 12.3195 111.078 14.0586C105.639 15.1962 106.491 21.4892 107.598 24.4936C105.384 26.3906 105.383 31.1338 106.49 30.9758Z" fill="white"/>
<path fill-rule="evenodd" clip-rule="evenodd" d="M133.927 8.54933C130.587 8.37473 127.397 10.0878 125.477 11.7509L125.15 12.0341L124.823 11.7513C122.075 9.37758 120.344 9.11242 119.336 9.46793C118.314 9.82821 117.751 10.924 117.579 11.9303L117.445 12.7106L116.798 12.255C116.001 11.694 115.323 11.4664 114.758 11.4322C114.197 11.3982 113.71 11.5522 113.286 11.821C112.417 12.3725 111.822 13.4072 111.552 14.2169L111.461 14.4894L111.18 14.5482C109.919 14.8117 109.056 15.3647 108.467 16.0677C107.872 16.7769 107.531 17.6714 107.377 18.6538C107.066 20.6317 107.531 22.8659 108.066 24.3209L108.186 24.6472L107.922 24.8734C106.956 25.7017 106.428 27.2107 106.296 28.5546C106.23 29.2197 106.267 29.7923 106.367 30.1672C106.411 30.3301 106.458 30.4257 106.492 30.4738C106.761 30.4592 106.984 30.5804 107.142 30.7171C107.309 30.8624 107.446 31.0582 107.558 31.2585C107.785 31.6624 107.982 32.2087 108.151 32.7845C108.435 33.7558 108.661 34.8958 108.806 35.7902C114.061 35.0684 122.094 33.814 129.726 32.3114C133.662 31.5364 137.486 30.6964 140.765 29.8305C144.052 28.9623 146.76 28.0759 148.483 27.2151C150.191 26.3612 150.911 25.4602 151.104 24.6365C151.298 23.8102 151.001 22.8961 150.289 21.9267C148.858 19.9794 145.992 18.1408 143.745 17.043L143.582 16.9635L143.508 16.7984C140.783 10.7248 137.208 8.72086 133.927 8.54933ZM144.346 16.2244C141.516 10.0253 137.694 7.74487 133.979 7.5507C130.483 7.36792 127.215 9.04326 125.151 10.7192C122.496 8.5175 120.483 8.00317 119.003 8.5248C117.774 8.95795 117.09 10.0437 116.767 11.0529C116.082 10.6681 115.431 10.4712 114.818 10.434C114.023 10.3858 113.33 10.6091 112.751 10.9766C111.72 11.6302 111.048 12.7383 110.7 13.6322C109.38 13.9598 108.399 14.5917 107.7 15.4255C106.959 16.3101 106.563 17.3899 106.389 18.4986C106.065 20.5585 106.494 22.8022 107.017 24.3517C105.945 25.4373 105.435 27.0973 105.3 28.4563C105.227 29.1944 105.26 29.8965 105.401 30.4258C105.471 30.6865 105.578 30.9475 105.749 31.1463C105.921 31.3468 106.177 31.4992 106.493 31.478C106.536 31.5179 106.604 31.6008 106.686 31.7481C106.857 32.0521 107.029 32.5118 107.191 33.0654C107.512 34.1634 107.761 35.5135 107.891 36.4228L107.961 36.9143L108.453 36.8476C113.705 36.1359 122.024 34.8471 129.919 33.2925C133.867 32.5153 137.713 31.6707 141.02 30.7974C144.318 29.9265 147.11 29.0191 148.93 28.1096C150.763 27.1932 151.788 26.1023 152.078 24.8647C152.368 23.6297 151.887 22.413 151.094 21.3347C149.553 19.2368 146.611 17.3515 144.346 16.2244Z" fill="black"/>
<path d="M97.3118 69.554L114.554 21.0159L119.614 20.068C122.396 24.3692 128.889 23.8643 131.788 23.0742L148.706 27.6623L149.812 30.6666L135.573 81.2607C116.346 87.0762 102.054 75.8793 97.3118 69.554Z" fill="#CBCCCE"/>
<path fill-rule="evenodd" clip-rule="evenodd" d="M149.086 27.2472L150.337 30.6459L135.981 81.6599L135.718 81.7392C116.221 87.6361 101.731 76.2819 96.9119 69.8538L96.751 69.6392L114.18 20.5773L119.852 19.5147L120.034 19.7963C121.315 21.7771 123.469 22.6824 125.724 22.9846C127.979 23.2868 130.259 22.9728 131.657 22.5917L131.788 22.5559L149.086 27.2472ZM131.787 23.5918C130.279 23.9842 127.933 24.2896 125.591 23.9758C123.279 23.666 120.9 22.7405 119.385 20.6196L114.929 21.4542L97.8736 69.4665C102.674 75.6944 116.554 86.3512 135.167 80.8603L149.287 30.6871L148.326 28.0772L131.787 23.5918Z" fill="black"/>
<path d="M102.214 67.4995L112.496 36.6689C115.531 40.2112 133.366 44.6835 141.904 46.4769L133.519 76.359C119.478 79.266 106.798 71.6639 102.214 67.4995Z" fill="#ECA412"/>
<path fill-rule="evenodd" clip-rule="evenodd" d="M112.303 35.6729L112.877 36.3434C113.203 36.7238 113.758 37.1478 114.535 37.602C115.305 38.0523 116.263 38.5152 117.367 38.983C119.576 39.9186 122.338 40.8598 125.283 41.7499C131.17 43.5297 137.749 45.0927 142.008 45.9874L142.531 46.0972L133.919 76.7868L133.622 76.8484C119.363 79.8004 106.527 72.0912 101.879 67.8694L101.638 67.6503L112.303 35.6729ZM112.722 37.5756L102.794 67.3456C107.473 71.4625 119.655 78.5768 133.121 75.9292L141.28 46.8553C136.998 45.9417 130.68 44.4261 124.993 42.7072C122.033 41.8123 119.233 40.8592 116.977 39.9039C115.85 39.4263 114.85 38.9446 114.03 38.4653C113.533 38.1744 113.09 37.8778 112.722 37.5756Z" fill="black"/>
<path fill-rule="evenodd" clip-rule="evenodd" d="M116.797 24.8514C116.148 24.7601 115.516 24.9884 115.142 25.2304L114.599 24.3907C115.121 24.0531 115.992 23.7283 116.936 23.8612C117.917 23.9991 118.891 24.6184 119.587 26.0108L118.692 26.4578C118.124 25.3202 117.411 24.9377 116.797 24.8514Z" fill="black"/>
<path fill-rule="evenodd" clip-rule="evenodd" d="M143.801 32.3866C143.151 32.2952 142.52 32.5236 142.146 32.7655L141.603 31.9259C142.125 31.5883 142.996 31.2635 143.94 31.3963C144.921 31.5343 145.895 32.1535 146.591 33.5459L145.696 33.993C145.127 32.8553 144.415 32.4729 143.801 32.3866Z" fill="black"/>
<path fill-rule="evenodd" clip-rule="evenodd" d="M126.88 74.1448L139.377 36.6738L140.326 36.9902L127.828 74.4611L126.88 74.1448Z" fill="black"/>
<path fill-rule="evenodd" clip-rule="evenodd" d="M117.71 68.4509L129.416 33.3516L130.365 33.6679L118.658 68.7673L117.71 68.4509Z" fill="black"/>
<path fill-rule="evenodd" clip-rule="evenodd" d="M106.641 66.8679L118.348 31.7686L119.296 32.0849L107.59 67.1843L106.641 66.8679Z" fill="black"/>
<path fill-rule="evenodd" clip-rule="evenodd" d="M124.518 26.8282C123.45 26.7337 122.361 27.2937 121.678 27.8793L121.027 27.1199C121.819 26.4409 123.166 25.7047 124.606 25.832C126.112 25.9652 127.533 27.0197 128.462 29.5415L127.524 29.8871C126.682 27.602 125.521 26.9168 124.518 26.8282Z" fill="black"/>
<path fill-rule="evenodd" clip-rule="evenodd" d="M134.507 29.7481C133.362 29.6766 132.367 30.2048 131.809 30.7161L131.133 29.9789C131.84 29.3309 133.09 28.6578 134.569 28.7501C136.078 28.8442 137.709 29.7258 139.163 31.9745L138.324 32.5176C136.996 30.4651 135.624 29.8178 134.507 29.7481Z" fill="black"/>
<path fill-rule="evenodd" clip-rule="evenodd" d="M142.063 42.84L144.594 35.251L145.542 35.5674L143.011 43.1564L142.063 42.84Z" fill="black"/>
<path fill-rule="evenodd" clip-rule="evenodd" d="M113.287 34.298L115.818 26.709L116.767 27.0254L114.236 34.6144L113.287 34.298Z" fill="black"/>
<path d="M194.521 52.3333C195.406 52.2069 196.154 55.8647 196.418 57.7094C206.906 56.2881 229.654 52.5602 236.738 49.0197C243.822 45.4791 236.528 40.1653 231.996 37.951C226.433 25.554 217.135 29.3051 213.182 32.7303C207.617 27.9227 205.487 31.0425 205.118 33.2034C201.703 30.7995 199.689 33.6769 199.109 35.416C193.67 36.5536 194.523 42.8466 195.629 45.851C193.415 47.748 193.414 52.4912 194.521 52.3333Z" fill="white"/>
<path fill-rule="evenodd" clip-rule="evenodd" d="M221.959 29.9068C218.619 29.7322 215.428 31.4453 213.508 33.1083L213.182 33.3915L212.854 33.1088C210.107 30.735 208.376 30.4698 207.367 30.8254C206.345 31.1856 205.782 32.2814 205.61 33.2878L205.477 34.0681L204.829 33.6124C204.032 33.0514 203.354 32.8239 202.789 32.7896C202.228 32.7556 201.741 32.9096 201.318 33.1784C200.448 33.73 199.853 34.7646 199.583 35.5744L199.492 35.8468L199.211 35.9056C197.951 36.1692 197.087 36.7221 196.498 37.4252C195.904 38.1344 195.562 39.0288 195.408 40.0112C195.097 41.9891 195.562 44.2234 196.098 45.6783L196.218 46.0046L195.954 46.2308C194.987 47.0592 194.46 48.5681 194.327 49.912C194.261 50.5771 194.298 51.1497 194.398 51.5247C194.442 51.6875 194.49 51.7831 194.523 51.8312C194.792 51.8167 195.015 51.9378 195.173 52.0745C195.341 52.2198 195.477 52.4156 195.589 52.6159C195.816 53.0199 196.014 53.5662 196.182 54.1419C196.466 55.1132 196.693 56.2533 196.837 57.1476C202.092 56.4258 210.125 55.1714 217.757 53.6688C221.693 52.8938 225.517 52.0538 228.796 51.1879C232.084 50.3197 234.792 49.4333 236.514 48.5725C238.222 47.7186 238.943 46.8177 239.136 45.9939C239.329 45.1676 239.032 44.2536 238.32 43.2841C236.889 41.3368 234.023 39.4982 231.776 38.4004L231.614 38.321L231.54 38.1559C228.814 32.0822 225.24 30.0783 221.959 29.9068ZM232.377 37.5819C229.547 31.3828 225.725 29.1023 222.011 28.9081C218.515 28.7253 215.246 30.4007 213.183 32.0766C210.527 29.8749 208.515 29.3606 207.035 29.8822C205.806 30.3154 205.121 31.4011 204.798 32.4103C204.113 32.0255 203.462 31.8286 202.85 31.7914C202.054 31.7432 201.361 31.9665 200.782 32.334C199.752 32.9877 199.079 34.0957 198.731 34.9896C197.412 35.3173 196.43 35.9491 195.731 36.7829C194.99 37.6675 194.594 38.7474 194.42 39.856C194.096 41.9159 194.525 44.1596 195.048 45.7091C193.976 46.7947 193.466 48.4548 193.332 49.8137C193.259 50.5518 193.291 51.2539 193.432 51.7832C193.502 52.0439 193.61 52.3049 193.78 52.5038C193.952 52.7042 194.208 52.8567 194.524 52.8355C194.568 52.8753 194.635 52.9582 194.717 53.1055C194.888 53.4095 195.06 53.8693 195.222 54.4228C195.544 55.5208 195.792 56.8709 195.922 57.7802L195.992 58.2717L196.484 58.205C201.736 57.4933 210.055 56.2045 217.95 54.65C221.898 53.8727 225.745 53.0281 229.051 52.1548C232.349 51.2839 235.141 50.3765 236.961 49.467C238.794 48.5507 239.819 47.4597 240.109 46.2221C240.399 44.9871 239.918 43.7705 239.126 42.6921C237.585 40.5943 234.643 38.7089 232.377 37.5819Z" fill="black"/>
<path d="M185.343 90.9114L202.585 42.3733L207.645 41.4255C210.427 45.7266 216.921 45.2217 219.82 44.4316L236.737 49.0197L237.843 52.0241L223.605 102.618C204.377 108.434 190.085 97.2368 185.343 90.9114Z" fill="#CBCCCE"/>
<path fill-rule="evenodd" clip-rule="evenodd" d="M237.117 48.6046L238.369 52.0033L224.012 103.017L223.75 103.097C204.253 108.994 189.763 97.6394 184.943 91.2112L184.782 90.9966L202.211 41.9347L207.883 40.8721L208.065 41.1538C209.346 43.1345 211.5 44.0399 213.755 44.3421C216.01 44.6442 218.29 44.3302 219.688 43.9491L219.819 43.9133L237.117 48.6046ZM219.818 44.9492C218.311 45.3416 215.965 45.647 213.622 45.3332C211.31 45.0234 208.931 44.098 207.416 41.977L202.96 42.8116L185.905 90.8239C190.705 97.0518 204.586 107.709 223.198 102.218L237.318 52.0445L236.357 49.4346L219.818 44.9492Z" fill="black"/>
<path d="M190.245 88.8569L200.527 58.0264C203.563 61.5686 221.397 66.0409 229.935 67.8343L221.55 97.7164C207.509 100.623 194.829 93.0213 190.245 88.8569Z" fill="#ECA412"/>
<path fill-rule="evenodd" clip-rule="evenodd" d="M200.334 57.0303L200.909 57.7009C201.234 58.0812 201.789 58.5052 202.566 58.9595C203.336 59.4097 204.294 59.8727 205.399 60.3405C207.608 61.276 210.369 62.2173 213.314 63.1074C219.202 64.8871 225.78 66.4501 230.039 67.3448L230.562 67.4546L221.951 98.1442L221.653 98.2059C207.394 101.158 194.558 93.4487 189.91 89.2268L189.669 89.0077L200.334 57.0303ZM200.754 58.933L190.825 88.703C195.504 92.8199 207.686 99.9342 221.153 97.2866L229.311 68.2127C225.029 67.2992 218.711 65.7835 213.025 64.0646C210.064 63.1697 207.264 62.2166 205.009 61.2613C203.881 60.7837 202.881 60.302 202.061 59.8227C201.564 59.5318 201.121 59.2352 200.754 58.933Z" fill="black"/>
<path fill-rule="evenodd" clip-rule="evenodd" d="M204.828 46.2089C204.179 46.1175 203.547 46.3458 203.173 46.5878L202.63 45.7482C203.152 45.4105 204.023 45.0857 204.968 45.2186C205.948 45.3566 206.922 45.9758 207.618 47.3682L206.723 47.8152C206.155 46.6776 205.442 46.2952 204.828 46.2089Z" fill="black"/>
<path fill-rule="evenodd" clip-rule="evenodd" d="M231.832 53.744C231.183 53.6526 230.551 53.881 230.177 54.123L229.634 53.2833C230.156 52.9457 231.027 52.6209 231.972 52.7538C232.952 52.8917 233.926 53.5109 234.622 54.9033L233.727 55.3504C233.159 54.2128 232.446 53.8303 231.832 53.744Z" fill="black"/>
<path fill-rule="evenodd" clip-rule="evenodd" d="M214.911 95.5022L227.408 58.0312L228.357 58.3476L215.86 95.8186L214.911 95.5022Z" fill="black"/>
<path fill-rule="evenodd" clip-rule="evenodd" d="M205.741 89.8083L217.447 54.709L218.396 55.0254L206.69 90.1247L205.741 89.8083Z" fill="black"/>
<path fill-rule="evenodd" clip-rule="evenodd" d="M194.673 88.2253L206.379 53.126L207.328 53.4424L195.621 88.5417L194.673 88.2253Z" fill="black"/>
<path fill-rule="evenodd" clip-rule="evenodd" d="M212.549 48.1856C211.481 48.0911 210.392 48.6511 209.709 49.2367L209.058 48.4774C209.851 47.7983 211.197 47.0622 212.637 47.1895C214.144 47.3226 215.565 48.3771 216.493 50.8989L215.555 51.2445C214.713 48.9594 213.552 48.2742 212.549 48.1856Z" fill="black"/>
<path fill-rule="evenodd" clip-rule="evenodd" d="M222.538 51.1056C221.393 51.0341 220.398 51.5622 219.84 52.0735L219.164 51.3363C219.871 50.6883 221.122 50.0152 222.601 50.1075C224.109 50.2016 225.74 51.0833 227.195 53.3319L226.355 53.875C225.027 51.8225 223.655 51.1752 222.538 51.1056Z" fill="black"/>
<path fill-rule="evenodd" clip-rule="evenodd" d="M230.094 64.1984L232.625 56.6094L233.574 56.9258L231.043 64.5148L230.094 64.1984Z" fill="black"/>
<path fill-rule="evenodd" clip-rule="evenodd" d="M201.319 55.6555L203.85 48.0664L204.798 48.3828L202.267 55.9718L201.319 55.6555Z" fill="black"/>
<path d="M282.556 30.9758C283.442 30.8495 284.189 34.5073 284.453 36.352C294.941 34.9307 317.689 31.2028 324.773 27.6622C331.857 24.1217 324.564 18.8079 320.031 16.5936C314.468 4.19655 305.17 7.94766 301.217 11.3728C295.652 6.56527 293.522 9.68511 293.153 11.846C289.738 9.44208 287.724 12.3195 287.144 14.0586C281.705 15.1962 282.558 21.4892 283.664 24.4936C281.45 26.3906 281.449 31.1338 282.556 30.9758Z" fill="white"/>
<path fill-rule="evenodd" clip-rule="evenodd" d="M309.994 8.54933C306.654 8.37473 303.463 10.0878 301.544 11.7509L301.217 12.0341L300.889 11.7513C298.142 9.37758 296.411 9.11242 295.402 9.46793C294.38 9.82821 293.817 10.924 293.645 11.9303L293.512 12.7106L292.864 12.255C292.068 11.694 291.389 11.4664 290.824 11.4322C290.263 11.3982 289.776 11.5522 289.353 11.821C288.484 12.3725 287.888 13.4072 287.618 14.2169L287.527 14.4894L287.246 14.5482C285.986 14.8117 285.122 15.3647 284.533 16.0677C283.939 16.7769 283.597 17.6714 283.443 18.6538C283.132 20.6317 283.597 22.8659 284.133 24.3209L284.253 24.6472L283.989 24.8734C283.022 25.7017 282.495 27.2107 282.362 28.5546C282.296 29.2197 282.333 29.7923 282.434 30.1672C282.477 30.3301 282.525 30.4257 282.558 30.4738C282.828 30.4592 283.05 30.5804 283.208 30.7171C283.376 30.8624 283.512 31.0582 283.625 31.2585C283.851 31.6624 284.049 32.2087 284.217 32.7845C284.502 33.7558 284.728 34.8958 284.872 35.7902C290.127 35.0684 298.161 33.814 305.792 32.3114C309.728 31.5364 313.553 30.6964 316.831 29.8305C320.119 28.9623 322.827 28.0759 324.549 27.2151C326.258 26.3612 326.978 25.4602 327.171 24.6365C327.365 23.8102 327.067 22.8961 326.355 21.9267C324.924 19.9794 322.059 18.1408 319.811 17.043L319.649 16.9635L319.575 16.7984C316.849 10.7248 313.275 8.72086 309.994 8.54933ZM320.413 16.2244C317.582 10.0253 313.76 7.74487 310.046 7.5507C306.55 7.36792 303.281 9.04326 301.218 10.7192C298.562 8.5175 296.55 8.00317 295.07 8.5248C293.841 8.95795 293.156 10.0437 292.833 11.0529C292.148 10.6681 291.498 10.4712 290.885 10.434C290.089 10.3858 289.396 10.6091 288.817 10.9766C287.787 11.6302 287.114 12.7383 286.766 13.6322C285.447 13.9598 284.465 14.5917 283.766 15.4255C283.025 16.3101 282.629 17.3899 282.455 18.4986C282.132 20.5585 282.56 22.8022 283.083 24.3517C282.011 25.4373 281.501 27.0973 281.367 28.4563C281.294 29.1944 281.326 29.8965 281.468 30.4258C281.537 30.6865 281.645 30.9475 281.815 31.1463C281.988 31.3468 282.243 31.4992 282.559 31.478C282.603 31.5179 282.67 31.6008 282.753 31.7481C282.923 32.0521 283.095 32.5118 283.257 33.0654C283.579 34.1634 283.828 35.5135 283.957 36.4228L284.027 36.9143L284.519 36.8476C289.771 36.1359 298.09 34.8471 305.986 33.2925C309.933 32.5153 313.78 31.6707 317.087 30.7974C320.384 29.9265 323.176 29.0191 324.996 28.1096C326.83 27.1932 327.854 26.1023 328.144 24.8647C328.434 23.6297 327.953 22.413 327.161 21.3347C325.62 19.2368 322.678 17.3515 320.413 16.2244Z" fill="black"/>
<path d="M273.378 69.554L290.621 21.0159L295.68 20.068C298.463 24.3692 304.956 23.8643 307.855 23.0742L324.772 27.6623L325.878 30.6666L311.64 81.2607C292.412 87.0762 278.121 75.8793 273.378 69.554Z" fill="#CBCCCE"/>
<path fill-rule="evenodd" clip-rule="evenodd" d="M325.152 27.2472L326.404 30.6459L312.047 81.6599L311.785 81.7392C292.288 87.6361 277.798 76.2819 272.978 69.8538L272.817 69.6392L290.246 20.5773L295.918 19.5147L296.1 19.7963C297.382 21.7771 299.535 22.6824 301.79 22.9846C304.045 23.2868 306.325 22.9728 307.723 22.5917L307.855 22.5559L325.152 27.2472ZM307.854 23.5918C306.346 23.9842 304 24.2896 301.658 23.9758C299.345 23.666 296.966 22.7405 295.451 20.6196L290.996 21.4542L273.94 69.4665C278.74 75.6944 292.621 86.3512 311.233 80.8603L325.353 30.6871L324.392 28.0772L307.854 23.5918Z" fill="black"/>
<path d="M278.28 67.4995L288.562 36.6689C291.598 40.2112 309.432 44.6835 317.97 46.4769L309.585 76.359C295.544 79.266 282.865 71.6639 278.28 67.4995Z" fill="#ECA412"/>
<path fill-rule="evenodd" clip-rule="evenodd" d="M288.369 35.6729L288.944 36.3434C289.27 36.7238 289.824 37.1478 290.601 37.602C291.371 38.0523 292.329 38.5152 293.434 38.983C295.643 39.9186 298.404 40.8598 301.349 41.7499C307.237 43.5297 313.815 45.0927 318.074 45.9874L318.597 46.0972L309.986 76.7868L309.688 76.8484C295.43 79.8004 282.593 72.0912 277.945 67.8694L277.704 67.6503L288.369 35.6729ZM288.789 37.5756L278.86 67.3456C283.539 71.4625 295.722 78.5768 309.188 75.9292L317.346 46.8553C313.064 45.9417 306.746 44.4261 301.06 42.7072C298.099 41.8123 295.299 40.8592 293.044 39.9039C291.916 39.4263 290.916 38.9446 290.097 38.4653C289.599 38.1744 289.157 37.8778 288.789 37.5756Z" fill="black"/>
<path fill-rule="evenodd" clip-rule="evenodd" d="M292.864 24.8514C292.214 24.7601 291.583 24.9884 291.209 25.2304L290.665 24.3907C291.187 24.0531 292.058 23.7283 293.003 23.8612C293.984 23.9991 294.957 24.6184 295.653 26.0108L294.759 26.4578C294.19 25.3202 293.477 24.9377 292.864 24.8514Z" fill="black"/>
<path fill-rule="evenodd" clip-rule="evenodd" d="M319.868 32.3866C319.218 32.2952 318.587 32.5236 318.212 32.7655L317.669 31.9259C318.191 31.5883 319.062 31.2635 320.007 31.3963C320.988 31.5343 321.961 32.1535 322.657 33.5459L321.762 33.993C321.194 32.8553 320.481 32.4729 319.868 32.3866Z" fill="black"/>
<path fill-rule="evenodd" clip-rule="evenodd" d="M302.946 74.1448L315.443 36.6738L316.392 36.9902L303.895 74.4611L302.946 74.1448Z" fill="black"/>
<path fill-rule="evenodd" clip-rule="evenodd" d="M293.776 68.4509L305.482 33.3516L306.431 33.6679L294.725 68.7673L293.776 68.4509Z" fill="black"/>
<path fill-rule="evenodd" clip-rule="evenodd" d="M282.708 66.8679L294.414 31.7686L295.363 32.0849L283.656 67.1843L282.708 66.8679Z" fill="black"/>
<path fill-rule="evenodd" clip-rule="evenodd" d="M300.585 26.8282C299.516 26.7337 298.428 27.2937 297.744 27.8793L297.093 27.1199C297.886 26.4409 299.233 25.7047 300.673 25.832C302.179 25.9652 303.6 27.0197 304.528 29.5415L303.59 29.8871C302.748 27.602 301.587 26.9168 300.585 26.8282Z" fill="black"/>
<path fill-rule="evenodd" clip-rule="evenodd" d="M310.574 29.7481C309.428 29.6766 308.433 30.2048 307.875 30.7161L307.199 29.9789C307.906 29.3309 309.157 28.6578 310.636 28.7501C312.144 28.8442 313.775 29.7258 315.23 31.9745L314.39 32.5176C313.063 30.4651 311.69 29.8178 310.574 29.7481Z" fill="black"/>
<path fill-rule="evenodd" clip-rule="evenodd" d="M318.129 42.841L320.66 35.252L321.609 35.5683L319.078 43.1574L318.129 42.841Z" fill="black"/>
<path fill-rule="evenodd" clip-rule="evenodd" d="M289.354 34.298L291.885 26.709L292.833 27.0254L290.302 34.6144L289.354 34.298Z" fill="black"/>
<path d="M370.591 52.3333C371.477 52.2069 372.225 55.8647 372.488 57.7094C382.976 56.2881 405.724 52.5602 412.808 49.0197C419.892 45.4791 412.599 40.1653 408.067 37.951C402.503 25.554 393.205 29.3051 389.252 32.7303C383.687 27.9227 381.557 31.0425 381.188 33.2034C377.773 30.7995 375.759 33.6769 375.179 35.416C369.74 36.5536 370.593 42.8466 371.699 45.851C369.485 47.748 369.485 52.4912 370.591 52.3333Z" fill="white"/>
<path fill-rule="evenodd" clip-rule="evenodd" d="M398.029 29.9068C394.689 29.7322 391.498 31.4453 389.579 33.1083L389.252 33.3915L388.925 33.1088C386.177 30.735 384.446 30.4698 383.437 30.8254C382.415 31.1856 381.852 32.2814 381.68 33.2878L381.547 34.0681L380.9 33.6124C380.103 33.0514 379.424 32.8239 378.859 32.7896C378.299 32.7556 377.812 32.9096 377.388 33.1784C376.519 33.73 375.923 34.7646 375.653 35.5744L375.562 35.8468L375.281 35.9056C374.021 36.1692 373.157 36.7221 372.568 37.4252C371.974 38.1344 371.632 39.0288 371.478 40.0112C371.167 41.9891 371.632 44.2234 372.168 45.6783L372.288 46.0046L372.024 46.2308C371.057 47.0592 370.53 48.5681 370.397 49.912C370.331 50.5771 370.368 51.1497 370.469 51.5247C370.512 51.6875 370.56 51.7831 370.593 51.8312C370.863 51.8167 371.085 51.9378 371.243 52.0745C371.411 52.2198 371.547 52.4156 371.66 52.6159C371.887 53.0199 372.084 53.5662 372.252 54.1419C372.537 55.1132 372.763 56.2533 372.907 57.1476C378.162 56.4258 386.196 55.1714 393.828 53.6688C397.764 52.8938 401.588 52.0538 404.866 51.1879C408.154 50.3197 410.862 49.4333 412.584 48.5725C414.293 47.7186 415.013 46.8177 415.206 45.9939C415.4 45.1676 415.102 44.2536 414.39 43.2841C412.96 41.3368 410.094 39.4982 407.847 38.4004L407.684 38.321L407.61 38.1559C404.884 32.0822 401.31 30.0783 398.029 29.9068ZM408.448 37.5819C405.617 31.3828 401.795 29.1023 398.081 28.9081C394.585 28.7253 391.316 30.4007 389.253 32.0766C386.597 29.8749 384.585 29.3606 383.105 29.8822C381.876 30.3154 381.191 31.4011 380.868 32.4103C380.183 32.0255 379.533 31.8286 378.92 31.7914C378.124 31.7432 377.431 31.9665 376.852 32.334C375.822 32.9877 375.149 34.0957 374.802 34.9896C373.482 35.3173 372.5 35.9491 371.802 36.7829C371.06 37.6675 370.664 38.7474 370.49 39.856C370.167 41.9159 370.595 44.1596 371.119 45.7091C370.046 46.7947 369.536 48.4548 369.402 49.8137C369.329 50.5518 369.361 51.2539 369.503 51.7832C369.572 52.0439 369.68 52.3049 369.851 52.5038C370.023 52.7042 370.279 52.8567 370.594 52.8355C370.638 52.8753 370.705 52.9582 370.788 53.1055C370.958 53.4095 371.131 53.8693 371.293 54.4228C371.614 55.5208 371.863 56.8709 371.992 57.7802L372.063 58.2717L372.555 58.205C377.806 57.4933 386.125 56.2045 394.021 54.65C397.968 53.8727 401.815 53.0281 405.122 52.1548C408.419 51.2839 411.212 50.3765 413.031 49.467C414.865 48.5507 415.889 47.4597 416.18 46.2221C416.469 44.9871 415.988 43.7705 415.196 42.6921C413.655 40.5943 410.713 38.7089 408.448 37.5819Z" fill="black"/>
<path d="M361.413 90.9114L378.656 42.3733L383.716 41.4255C386.498 45.7266 392.991 45.2217 395.89 44.4316L412.807 49.0197L413.914 52.0241L399.675 102.618C380.447 108.434 366.156 97.2368 361.413 90.9114Z" fill="#CBCCCE"/>
<path fill-rule="evenodd" clip-rule="evenodd" d="M413.187 48.6046L414.439 52.0033L400.082 103.017L399.82 103.097C380.323 108.994 365.833 97.6394 361.013 91.2112L360.853 90.9966L378.281 41.9347L383.953 40.8721L384.136 41.1538C385.417 43.1345 387.57 44.0399 389.825 44.3421C392.08 44.6442 394.36 44.3302 395.759 43.9491L395.89 43.9133L413.187 48.6046ZM395.889 44.9492C394.381 45.3416 392.035 45.647 389.693 45.3332C387.38 45.0234 385.001 44.098 383.486 41.977L379.031 42.8116L361.975 90.8239C366.775 97.0518 380.656 107.709 399.268 102.218L413.389 52.0445L412.427 49.4346L395.889 44.9492Z" fill="black"/>
<path d="M366.315 88.8569L376.598 58.0264C379.633 61.5686 397.467 66.0409 406.005 67.8343L397.62 97.7164C383.579 100.623 370.9 93.0213 366.315 88.8569Z" fill="#ECA412"/>
<path fill-rule="evenodd" clip-rule="evenodd" d="M376.404 57.0303L376.979 57.7009C377.305 58.0812 377.86 58.5052 378.636 58.9595C379.406 59.4097 380.364 59.8727 381.469 60.3405C383.678 61.276 386.439 62.2173 389.384 63.1074C395.272 64.8871 401.85 66.4501 406.11 67.3448L406.633 67.4546L398.021 98.1442L397.723 98.2059C383.465 101.158 370.628 93.4487 365.981 89.2268L365.739 89.0077L376.404 57.0303ZM376.824 58.933L366.895 88.703C371.574 92.8199 383.757 99.9342 397.223 97.2866L405.381 68.2127C401.099 67.2992 394.781 65.7835 389.095 64.0646C386.134 63.1697 383.335 62.2166 381.079 61.2613C379.951 60.7837 378.951 60.302 378.132 59.8227C377.634 59.5318 377.192 59.2352 376.824 58.933Z" fill="black"/>
<path fill-rule="evenodd" clip-rule="evenodd" d="M380.899 46.2089C380.249 46.1175 379.618 46.3458 379.244 46.5878L378.701 45.7482C379.223 45.4105 380.093 45.0857 381.038 45.2186C382.019 45.3566 382.992 45.9758 383.688 47.3682L382.794 47.8152C382.225 46.6776 381.512 46.2952 380.899 46.2089Z" fill="black"/>
<path fill-rule="evenodd" clip-rule="evenodd" d="M407.903 53.744C407.253 53.6526 406.622 53.881 406.248 54.123L405.704 53.2833C406.226 52.9457 407.097 52.6209 408.042 52.7538C409.023 52.8917 409.996 53.5109 410.692 54.9033L409.798 55.3504C409.229 54.2128 408.516 53.8303 407.903 53.744Z" fill="black"/>
<path fill-rule="evenodd" clip-rule="evenodd" d="M390.981 95.5022L403.479 58.0312L404.427 58.3476L391.93 95.8186L390.981 95.5022Z" fill="black"/>
<path fill-rule="evenodd" clip-rule="evenodd" d="M381.811 89.8083L393.518 54.709L394.466 55.0254L382.76 90.1247L381.811 89.8083Z" fill="black"/>
<path fill-rule="evenodd" clip-rule="evenodd" d="M370.743 88.2253L382.449 53.126L383.398 53.4424L371.692 88.5417L370.743 88.2253Z" fill="black"/>
<path fill-rule="evenodd" clip-rule="evenodd" d="M388.62 48.1856C387.551 48.0911 386.463 48.6511 385.779 49.2367L385.129 48.4774C385.921 47.7983 387.268 47.0622 388.708 47.1895C390.214 47.3226 391.635 48.3771 392.563 50.8989L391.625 51.2445C390.784 48.9594 389.622 48.2742 388.62 48.1856Z" fill="black"/>
<path fill-rule="evenodd" clip-rule="evenodd" d="M398.609 51.1056C397.463 51.0341 396.468 51.5622 395.91 52.0735L395.234 51.3363C395.942 50.6883 397.192 50.0152 398.671 50.1075C400.179 50.2016 401.811 51.0833 403.265 53.3319L402.425 53.875C401.098 51.8225 399.725 51.1752 398.609 51.1056Z" fill="black"/>
<path fill-rule="evenodd" clip-rule="evenodd" d="M406.164 64.1984L408.695 56.6094L409.644 56.9258L407.113 64.5148L406.164 64.1984Z" fill="black"/>
<path fill-rule="evenodd" clip-rule="evenodd" d="M377.389 55.6555L379.92 48.0664L380.869 48.3828L378.337 55.9718L377.389 55.6555Z" fill="black"/>
<path d="M458.623 30.9758C459.508 30.8495 460.256 34.5073 460.519 36.352C471.007 34.9307 493.755 31.2028 500.839 27.6622C507.924 24.1217 500.63 18.8079 496.098 16.5936C490.534 4.19655 481.237 7.94766 477.283 11.3728C471.718 6.56527 469.588 9.68511 469.219 11.846C465.804 9.44208 463.791 12.3195 463.211 14.0586C457.771 15.1962 458.624 21.4892 459.73 24.4936C457.516 26.3906 457.516 31.1338 458.623 30.9758Z" fill="white"/>
<path fill-rule="evenodd" clip-rule="evenodd" d="M486.06 8.54933C482.72 8.37473 479.53 10.0878 477.61 11.7509L477.283 12.0341L476.956 11.7513C474.208 9.37758 472.477 9.11242 471.469 9.46793C470.446 9.82821 469.884 10.924 469.712 11.9303L469.578 12.7106L468.931 12.255C468.134 11.694 467.455 11.4664 466.891 11.4322C466.33 11.3982 465.843 11.5522 465.419 11.821C464.55 12.3725 463.955 13.4072 463.684 14.2169L463.594 14.4894L463.313 14.5482C462.052 14.8117 461.188 15.3647 460.599 16.0677C460.005 16.7769 459.664 17.6714 459.509 18.6538C459.199 20.6317 459.663 22.8659 460.199 24.3209L460.319 24.6472L460.055 24.8734C459.089 25.7017 458.561 27.2107 458.428 28.5546C458.363 29.2197 458.4 29.7923 458.5 30.1672C458.544 30.3301 458.591 30.4257 458.624 30.4738C458.894 30.4592 459.117 30.5804 459.274 30.7171C459.442 30.8624 459.579 31.0582 459.691 31.2585C459.918 31.6624 460.115 32.2087 460.284 32.7845C460.568 33.7558 460.794 34.8958 460.939 35.7902C466.194 35.0684 474.227 33.814 481.859 32.3114C485.795 31.5364 489.619 30.6964 492.898 29.8305C496.185 28.9623 498.893 28.0759 500.615 27.2151C502.324 26.3612 503.044 25.4602 503.237 24.6365C503.431 23.8102 503.134 22.8961 502.421 21.9267C500.991 19.9794 498.125 18.1408 495.878 17.043L495.715 16.9635L495.641 16.7984C492.915 10.7248 489.341 8.72086 486.06 8.54933ZM496.479 16.2244C493.648 10.0253 489.827 7.74487 486.112 7.5507C482.616 7.36792 479.348 9.04326 477.284 10.7192C474.629 8.5175 472.616 8.00317 471.136 8.5248C469.907 8.95795 469.223 10.0437 468.9 11.0529C468.214 10.6681 467.564 10.4712 466.951 10.434C466.156 10.3858 465.463 10.6091 464.883 10.9766C463.853 11.6302 463.18 12.7383 462.833 13.6322C461.513 13.9598 460.531 14.5917 459.833 15.4255C459.092 16.3101 458.696 17.3899 458.522 18.4986C458.198 20.5585 458.627 22.8022 459.15 24.3517C458.078 25.4373 457.567 27.0973 457.433 28.4563C457.36 29.1944 457.392 29.8965 457.534 30.4258C457.604 30.6865 457.711 30.9475 457.882 31.1463C458.054 31.3468 458.31 31.4992 458.625 31.478C458.669 31.5179 458.736 31.6008 458.819 31.7481C458.99 32.0521 459.162 32.5118 459.324 33.0654C459.645 34.1634 459.894 35.5135 460.024 36.4228L460.094 36.9143L460.586 36.8476C465.838 36.1359 474.157 34.8471 482.052 33.2925C486 32.5153 489.846 31.6707 493.153 30.7974C496.451 29.9265 499.243 29.0191 501.063 28.1096C502.896 27.1932 503.921 26.1023 504.211 24.8647C504.5 23.6297 504.019 22.413 503.227 21.3347C501.686 19.2368 498.744 17.3515 496.479 16.2244Z" fill="black"/>
<path d="M449.445 69.554L466.687 21.0159L471.747 20.068C474.529 24.3692 481.022 23.8643 483.921 23.0742L500.839 27.6623L501.945 30.6666L487.706 81.2607C468.479 87.0762 454.187 75.8793 449.445 69.554Z" fill="#CBCCCE"/>
<path fill-rule="evenodd" clip-rule="evenodd" d="M501.219 27.2472L502.47 30.6459L488.113 81.6599L487.851 81.7392C468.354 87.6361 453.864 76.2819 449.045 69.8538L448.884 69.6392L466.312 20.5773L471.985 19.5147L472.167 19.7963C473.448 21.7771 475.601 22.6824 477.857 22.9846C480.112 23.2868 482.391 22.9728 483.79 22.5917L483.921 22.5559L501.219 27.2472ZM483.92 23.5918C482.412 23.9842 480.066 24.2896 477.724 23.9758C475.412 23.666 473.033 22.7405 471.518 20.6196L467.062 21.4542L450.006 69.4665C454.806 75.6944 468.687 86.3512 487.3 80.8603L501.42 30.6871L500.459 28.0772L483.92 23.5918Z" fill="black"/>
<path d="M454.346 67.4995L464.629 36.6689C467.664 40.2112 485.499 44.6835 494.036 46.4769L485.652 76.359C471.611 79.266 458.931 71.6639 454.346 67.4995Z" fill="#ECA412"/>
<path fill-rule="evenodd" clip-rule="evenodd" d="M464.436 35.6729L465.01 36.3434C465.336 36.7238 465.891 37.1478 466.668 37.602C467.438 38.0523 468.396 38.5152 469.5 38.983C471.709 39.9186 474.471 40.8598 477.415 41.7499C483.303 43.5297 489.882 45.0927 494.141 45.9874L494.664 46.0972L486.052 76.7868L485.754 76.8484C471.496 79.8004 458.66 72.0912 454.012 67.8694L453.771 67.6503L464.436 35.6729ZM464.855 37.5756L454.926 67.3456C459.605 71.4625 471.788 78.5768 485.254 75.9292L493.412 46.8553C489.131 45.9417 482.813 44.4261 477.126 42.7072C474.166 41.8123 471.366 40.8592 469.11 39.9039C467.983 39.4263 466.983 38.9446 466.163 38.4653C465.666 38.1744 465.223 37.8778 464.855 37.5756Z" fill="black"/>
<path fill-rule="evenodd" clip-rule="evenodd" d="M468.93 24.8514C468.28 24.7601 467.649 24.9884 467.275 25.2304L466.732 24.3907C467.254 24.0531 468.125 23.7283 469.069 23.8612C470.05 23.9991 471.024 24.6184 471.719 26.0108L470.825 26.4578C470.256 25.3202 469.544 24.9377 468.93 24.8514Z" fill="black"/>
<path fill-rule="evenodd" clip-rule="evenodd" d="M495.934 32.3866C495.284 32.2952 494.653 32.5236 494.279 32.7655L493.736 31.9259C494.258 31.5883 495.129 31.2635 496.073 31.3963C497.054 31.5343 498.027 32.1535 498.723 33.5459L497.829 33.993C497.26 32.8553 496.547 32.4729 495.934 32.3866Z" fill="black"/>
<path fill-rule="evenodd" clip-rule="evenodd" d="M479.013 74.1438L491.51 36.6729L492.458 36.9892L479.961 74.4602L479.013 74.1438Z" fill="black"/>
<path fill-rule="evenodd" clip-rule="evenodd" d="M469.843 68.4509L481.549 33.3516L482.497 33.6679L470.791 68.7673L469.843 68.4509Z" fill="black"/>
<path fill-rule="evenodd" clip-rule="evenodd" d="M458.774 66.8679L470.48 31.7686L471.429 32.0849L459.723 67.1843L458.774 66.8679Z" fill="black"/>
<path fill-rule="evenodd" clip-rule="evenodd" d="M476.651 26.8282C475.582 26.7337 474.494 27.2937 473.81 27.8793L473.16 27.1199C473.952 26.4409 475.299 25.7047 476.739 25.832C478.245 25.9652 479.666 27.0197 480.595 29.5415L479.656 29.8871C478.815 27.602 477.654 26.9168 476.651 26.8282Z" fill="black"/>
<path fill-rule="evenodd" clip-rule="evenodd" d="M486.64 29.7481C485.494 29.6766 484.499 30.2048 483.941 30.7161L483.266 29.9789C483.973 29.3309 485.223 28.6578 486.702 28.7501C488.21 28.8442 489.842 29.7258 491.296 31.9745L490.457 32.5176C489.129 30.4651 487.756 29.8178 486.64 29.7481Z" fill="black"/>
<path fill-rule="evenodd" clip-rule="evenodd" d="M494.195 42.84L496.727 35.251L497.675 35.5674L495.144 43.1564L494.195 42.84Z" fill="black"/>
<path fill-rule="evenodd" clip-rule="evenodd" d="M465.42 34.2971L467.951 26.708L468.9 27.0244L466.369 34.6134L465.42 34.2971Z" fill="black"/>
<path d="M546.658 52.3333C547.543 52.2069 548.291 55.8647 548.554 57.7094C559.043 56.2881 581.791 52.5602 588.875 49.0197C595.959 45.4791 588.665 40.1653 584.133 37.951C578.569 25.554 569.272 29.3051 565.318 32.7303C559.753 27.9227 557.624 31.0425 557.254 33.2034C553.839 30.7995 551.826 33.6769 551.246 35.416C545.807 36.5536 546.659 42.8466 547.766 45.851C545.552 47.748 545.551 52.4912 546.658 52.3333Z" fill="white"/>
<path fill-rule="evenodd" clip-rule="evenodd" d="M574.095 29.9068C570.755 29.7322 567.565 31.4453 565.645 33.1083L565.318 33.3915L564.991 33.1088C562.243 30.735 560.512 30.4698 559.504 30.8254C558.482 31.1856 557.919 32.2814 557.747 33.2878L557.613 34.0681L556.966 33.6124C556.169 33.0514 555.49 32.8239 554.926 32.7896C554.365 32.7556 553.878 32.9096 553.454 33.1784C552.585 33.73 551.99 34.7646 551.72 35.5744L551.629 35.8468L551.348 35.9056C550.087 36.1692 549.224 36.7221 548.635 37.4252C548.04 38.1344 547.699 39.0288 547.545 40.0112C547.234 41.9891 547.699 44.2234 548.234 45.6783L548.354 46.0046L548.09 46.2308C547.124 47.0592 546.596 48.5681 546.464 49.912C546.398 50.5771 546.435 51.1497 546.535 51.5247C546.579 51.6875 546.626 51.7831 546.66 51.8312C546.929 51.8167 547.152 51.9378 547.31 52.0745C547.477 52.2198 547.614 52.4156 547.726 52.6159C547.953 53.0199 548.15 53.5662 548.319 54.1419C548.603 55.1132 548.829 56.2533 548.974 57.1476C554.229 56.4258 562.262 55.1714 569.894 53.6688C573.83 52.8938 577.654 52.0538 580.933 51.1879C584.22 50.3197 586.928 49.4333 588.651 48.5725C590.359 47.7186 591.079 46.8177 591.272 45.9939C591.466 45.1676 591.169 44.2536 590.457 43.2841C589.026 41.3368 586.16 39.4982 583.913 38.4004L583.75 38.321L583.676 38.1559C580.951 32.0822 577.376 30.0783 574.095 29.9068ZM584.514 37.5819C581.684 31.3828 577.862 29.1023 574.147 28.9081C570.651 28.7253 567.383 30.4007 565.319 32.0766C562.664 29.8749 560.651 29.3606 559.171 29.8822C557.942 30.3154 557.258 31.4011 556.935 32.4103C556.249 32.0255 555.599 31.8286 554.986 31.7914C554.191 31.7432 553.498 31.9665 552.919 32.334C551.888 32.9877 551.216 34.0957 550.868 34.9896C549.548 35.3173 548.567 35.9491 547.868 36.7829C547.127 37.6675 546.731 38.7474 546.557 39.856C546.233 41.9159 546.662 44.1596 547.185 45.7091C546.113 46.7947 545.603 48.4548 545.468 49.8137C545.395 50.5518 545.427 51.2539 545.569 51.7832C545.639 52.0439 545.746 52.3049 545.917 52.5038C546.089 52.7042 546.345 52.8567 546.661 52.8355C546.704 52.8753 546.772 52.9582 546.854 53.1055C547.025 53.4095 547.197 53.8693 547.359 54.4228C547.68 55.5208 547.929 56.8709 548.059 57.7802L548.129 58.2717L548.621 58.205C553.873 57.4933 562.192 56.2045 570.087 54.65C574.035 53.8727 577.881 53.0281 581.188 52.1548C584.486 51.2839 587.278 50.3765 589.098 49.467C590.931 48.5507 591.956 47.4597 592.246 46.2221C592.536 44.9871 592.055 43.7705 591.262 42.6921C589.721 40.5943 586.779 38.7089 584.514 37.5819Z" fill="black"/>
<path d="M537.48 90.9114L554.722 42.3733L559.782 41.4255C562.564 45.7266 569.057 45.2217 571.956 44.4316L588.874 49.0197L589.98 52.0241L575.741 102.618C556.514 108.434 542.222 97.2368 537.48 90.9114Z" fill="#CBCCCE"/>
<path fill-rule="evenodd" clip-rule="evenodd" d="M589.254 48.6046L590.505 52.0033L576.149 103.017L575.886 103.097C556.389 108.994 541.899 97.6394 537.08 91.2112L536.919 90.9966L554.347 41.9347L560.02 40.8721L560.202 41.1538C561.483 43.1345 563.637 44.0399 565.892 44.3421C568.147 44.6442 570.427 44.3302 571.825 43.9491L571.956 43.9133L589.254 48.6046ZM571.955 44.9492C570.447 45.3416 568.101 45.647 565.759 45.3332C563.447 45.0234 561.068 44.098 559.553 41.977L555.097 42.8116L538.042 90.8239C542.842 97.0518 556.722 107.709 575.335 102.218L589.455 52.0445L588.494 49.4346L571.955 44.9492Z" fill="black"/>
<path d="M542.382 88.8569L552.664 58.0264C555.699 61.5686 573.534 66.0409 582.072 67.8343L573.687 97.7164C559.646 100.623 546.966 93.0213 542.382 88.8569Z" fill="#ECA412"/>
<path fill-rule="evenodd" clip-rule="evenodd" d="M552.471 57.0303L553.045 57.7009C553.371 58.0812 553.926 58.5052 554.703 58.9595C555.473 59.4097 556.431 59.8727 557.535 60.3405C559.744 61.276 562.506 62.2173 565.451 63.1074C571.338 64.8871 577.917 66.4501 582.176 67.3448L582.699 67.4546L574.087 98.1442L573.79 98.2059C559.531 101.158 546.695 93.4487 542.047 89.2268L541.806 89.0077L552.471 57.0303ZM552.89 58.933L542.961 88.703C547.641 92.8199 559.823 99.9342 573.289 97.2866L581.448 68.2127C577.166 67.2992 570.848 65.7835 565.161 64.0646C562.201 63.1697 559.401 62.2166 557.145 61.2613C556.018 60.7837 555.018 60.302 554.198 59.8227C553.701 59.5318 553.258 59.2352 552.89 58.933Z" fill="black"/>
<path fill-rule="evenodd" clip-rule="evenodd" d="M556.965 46.2089C556.316 46.1175 555.684 46.3458 555.31 46.5878L554.767 45.7482C555.289 45.4105 556.16 45.0857 557.104 45.2186C558.085 45.3566 559.059 45.9758 559.755 47.3682L558.86 47.8152C558.292 46.6776 557.579 46.2952 556.965 46.2089Z" fill="black"/>
<path fill-rule="evenodd" clip-rule="evenodd" d="M583.969 53.744C583.319 53.6526 582.688 53.881 582.314 54.123L581.771 53.2833C582.293 52.9457 583.164 52.6209 584.108 52.7538C585.089 52.8917 586.063 53.5109 586.759 54.9033L585.864 55.3504C585.295 54.2128 584.583 53.8303 583.969 53.744Z" fill="black"/>
<path fill-rule="evenodd" clip-rule="evenodd" d="M567.048 95.5012L579.545 58.0303L580.494 58.3467L567.996 95.8176L567.048 95.5012Z" fill="black"/>
<path fill-rule="evenodd" clip-rule="evenodd" d="M557.878 89.8083L569.584 54.709L570.533 55.0254L558.826 90.1247L557.878 89.8083Z" fill="black"/>
<path fill-rule="evenodd" clip-rule="evenodd" d="M546.809 88.2253L558.516 53.126L559.464 53.4424L547.758 88.5417L546.809 88.2253Z" fill="black"/>
<path fill-rule="evenodd" clip-rule="evenodd" d="M564.686 48.1856C563.618 48.0911 562.529 48.6511 561.846 49.2367L561.195 48.4774C561.987 47.7983 563.334 47.0622 564.774 47.1895C566.28 47.3226 567.701 48.3771 568.63 50.8989L567.691 51.2445C566.85 48.9594 565.689 48.2742 564.686 48.1856Z" fill="black"/>
<path fill-rule="evenodd" clip-rule="evenodd" d="M574.675 51.1056C573.53 51.0341 572.534 51.5622 571.977 52.0735L571.301 51.3363C572.008 50.6883 573.258 50.0152 574.737 50.1075C576.246 50.2016 577.877 51.0833 579.331 53.3319L578.492 53.875C577.164 51.8225 575.792 51.1752 574.675 51.1056Z" fill="black"/>
<path fill-rule="evenodd" clip-rule="evenodd" d="M582.231 64.1974L584.762 56.6084L585.71 56.9248L583.179 64.5138L582.231 64.1974Z" fill="black"/>
<path fill-rule="evenodd" clip-rule="evenodd" d="M553.455 55.6555L555.986 48.0664L556.935 48.3828L554.404 55.9718L553.455 55.6555Z" fill="black"/>
</svg>
