<svg width="184" height="294" viewBox="0 0 184 294" fill="none" xmlns="http://www.w3.org/2000/svg">
<path d="M15.8558 119.46C18.9121 117.932 26.0436 130.285 29.2272 136.652C65.5209 118.823 143.457 77.8172 164.851 56.4229C186.246 35.0286 153.39 24.5864 134.288 22.0396C99.1402 -16.1645 69.9777 8.6685 59.7899 25.8605C33.8111 15.1633 29.8634 29.0445 31.1369 37.3222C15.8552 32.7377 12.0352 45.5997 12.0354 52.6038C-6.30238 63.301 4.39465 85.0773 12.0354 94.6283C6.30477 104.179 12.0354 121.37 15.8558 119.46Z" fill="white"/>
<path fill-rule="evenodd" clip-rule="evenodd" d="M88.1878 5.01853C75.8726 8.42269 66.3797 18.4879 61.4333 26.8351L60.5907 28.2569L59.0626 27.6276C46.2355 22.3459 39.6419 23.4771 36.4161 25.9847C33.1472 28.5259 32.4317 33.1774 33.0248 37.0325L33.4847 40.0217L30.5879 39.1526C27.0219 38.0828 24.2871 38.0785 22.1988 38.6371C20.1255 39.1916 18.5468 40.3384 17.3365 41.8244C14.8527 44.8742 13.9455 49.3434 13.9456 52.6046L13.9456 53.7018L12.9979 54.2546C8.74889 56.7332 6.28679 59.7812 5.00176 63.0412C3.70552 66.3297 3.54916 69.9842 4.17733 73.7308C5.44218 81.2748 9.82664 88.8104 13.527 93.4359L14.3567 94.473L13.6734 95.6119C11.171 99.7826 11.0832 105.889 12.2266 110.92C12.7925 113.409 13.6186 115.44 14.4355 116.678C14.7903 117.215 15.0786 117.504 15.2572 117.638C16.2163 117.26 17.1695 117.43 17.9066 117.734C18.6907 118.058 19.4214 118.603 20.071 119.193C21.3811 120.383 22.7565 122.124 24.0631 124.007C26.2676 127.184 28.4657 131.042 30.0704 134.108C48.2426 125.141 75.8409 110.885 101.683 96.2141C115.011 88.648 127.855 80.9814 138.691 73.8804C149.557 66.7598 158.299 60.2744 163.5 55.073C168.66 49.9131 170.181 45.7775 169.885 42.5586C169.589 39.3299 167.406 36.3767 163.653 33.7242C156.115 28.3959 143.506 25.1966 134.035 23.9339L133.35 23.8426L132.882 23.3338C115.662 4.61651 100.286 1.67426 88.1878 5.01853ZM135.225 20.2408C117.473 1.19563 100.866 -2.44966 87.17 1.33621C74.2782 4.89974 64.4575 14.9222 59.0053 23.49C46.7201 18.7205 38.8045 19.2892 34.0714 22.9685C30.1413 26.0236 28.9725 30.7859 29.0213 34.8341C26.0729 34.2678 23.4781 34.3402 21.2117 34.9464C18.2709 35.733 16.0292 37.3799 14.3743 39.4118C11.4307 43.026 10.3317 47.855 10.1523 51.5146C5.76564 54.2974 2.97151 57.774 1.44751 61.6402C-0.169272 65.7418 -0.299439 70.1341 0.409513 74.3625C1.72675 82.219 5.992 89.8326 9.761 94.8158C7.18737 100.046 7.34499 106.679 8.50124 111.766C9.12922 114.529 10.094 117.035 11.247 118.782C11.815 119.643 12.5196 120.459 13.3787 120.973C14.2449 121.492 15.3561 121.735 16.4744 121.277C16.6812 121.368 17.025 121.587 17.5025 122.021C18.4886 122.917 19.6681 124.375 20.9244 126.185C23.4164 129.776 25.9494 134.369 27.5187 137.507L28.367 139.204L30.0694 138.367C48.2424 129.44 76.8345 114.714 103.57 99.5365C116.937 91.9482 129.857 84.2376 140.785 77.0757C151.684 69.9334 160.706 63.2702 166.202 57.7744C171.739 52.2371 174.134 47.0447 173.69 42.2089C173.246 37.383 170.033 33.555 165.858 30.6044C157.737 24.8643 144.797 21.5873 135.225 20.2408Z" fill="black"/>
<path d="M29.2285 270.368L33.0489 73.6167L50.2408 64.0656C65.5224 76.2909 88.4449 66.6126 97.9959 60.2452L164.853 56.4248L172.494 65.9758L182.045 266.547C119.39 310.864 54.0612 287.56 29.2285 270.368Z" fill="#CBCCCE"/>
<path fill-rule="evenodd" clip-rule="evenodd" d="M165.725 54.46L174.369 65.2647L183.999 267.501L183.144 268.105C119.612 313.043 53.3736 289.408 28.1374 271.937L27.2949 271.354L31.1566 72.4791L50.4295 61.7719L51.4302 62.5725C58.4676 68.2025 67.3662 68.8807 75.9051 67.2499C84.4421 65.6194 92.3252 61.7259 96.9325 58.6543L97.3646 58.3663L165.725 54.46ZM98.6135 62.1215C93.6233 65.3662 85.4897 69.3088 76.6218 71.0025C67.8675 72.6745 58.1269 72.1962 50.0725 66.3407L34.9336 74.7512L31.1546 269.371C56.0784 286.14 119.265 307.984 180.083 265.587L170.611 66.6839L163.974 58.3867L98.6135 62.1215Z" fill="black"/>
<path d="M44.5098 256.994V132.831C59.7914 142 129.832 136.651 162.942 132.831L168.673 251.264C121.3 278.771 66.1588 266.545 44.5098 256.994Z" fill="#ECA412"/>
<path fill-rule="evenodd" clip-rule="evenodd" d="M42.5996 129.457L45.4926 131.193C47.1335 132.177 49.6566 133.043 53.0212 133.751C56.356 134.452 60.3874 134.972 64.956 135.332C74.0919 136.053 85.2383 136.126 96.9863 135.792C120.475 135.126 146.206 132.839 162.724 130.933L164.752 130.699L170.637 252.332L169.632 252.915C121.525 280.848 65.6863 268.425 43.7388 258.742L42.5996 258.239V129.457ZM46.42 135.846V255.738C68.3539 265.003 121.105 276.061 166.709 250.189L161.133 134.959C144.511 136.824 119.782 138.967 97.0946 139.611C85.2834 139.946 73.9849 139.876 64.6555 139.141C59.9914 138.773 55.7851 138.236 52.2351 137.489C50.0809 137.036 48.1183 136.496 46.42 135.846Z" fill="black"/>
<path fill-rule="evenodd" clip-rule="evenodd" d="M45.8086 84.8063C43.3437 85.2604 41.3317 86.8511 40.2684 88.1802L37.2852 85.7936C38.7688 83.939 41.5323 81.7094 45.1164 81.0491C48.8375 80.3637 53.1142 81.4311 57.3193 85.6362L54.6179 88.3376C51.1822 84.9019 48.1365 84.3775 45.8086 84.8063Z" fill="black"/>
<path fill-rule="evenodd" clip-rule="evenodd" d="M152.783 79.4753C150.318 79.9293 148.306 81.5201 147.243 82.8492L144.26 80.4626C145.743 78.608 148.507 76.3783 152.091 75.7181C155.812 75.0326 160.089 76.1 164.294 80.3052L161.593 83.0066C158.157 79.5709 155.111 79.0465 152.783 79.4753Z" fill="black"/>
<path fill-rule="evenodd" clip-rule="evenodd" d="M141.932 251.265V100.358H145.752V251.265H141.932Z" fill="black"/>
<path fill-rule="evenodd" clip-rule="evenodd" d="M101.816 241.714V100.358H105.637V241.714H101.816Z" fill="black"/>
<path fill-rule="evenodd" clip-rule="evenodd" d="M59.7891 249.354V107.999H63.6095V249.354H59.7891Z" fill="black"/>
<path fill-rule="evenodd" clip-rule="evenodd" d="M76.1789 82.638C72.1921 83.5872 68.924 86.9323 67.1549 89.8809L63.8789 87.9153C65.9302 84.4965 69.9209 80.2008 75.2941 78.9214C80.9134 77.5835 87.3376 79.6876 93.7514 87.7048L90.7681 90.0914C84.9566 82.8269 79.9196 81.7473 76.1789 82.638Z" fill="black"/>
<path fill-rule="evenodd" clip-rule="evenodd" d="M115.915 81.143C111.676 82.2686 108.709 85.3855 107.304 87.913L103.965 86.0577C105.744 82.8546 109.462 78.9037 114.934 77.4506C120.514 75.9687 127.492 77.1921 135.481 83.5835L133.094 86.5668C125.802 80.7329 120.045 80.046 115.915 81.143Z" fill="black"/>
<path fill-rule="evenodd" clip-rule="evenodd" d="M159.123 119.461V88.8975H162.943V119.461H159.123Z" fill="black"/>
<path fill-rule="evenodd" clip-rule="evenodd" d="M44.5098 123.28V92.7168H48.3302V123.28H44.5098Z" fill="black"/>
</svg>
