<svg width="49" height="77" viewBox="0 0 49 77" fill="none" xmlns="http://www.w3.org/2000/svg">
<path d="M4.1503 31.2687C4.9503 30.8687 6.81697 34.102 7.6503 35.7687C17.1502 31.102 37.5501 20.3686 43.1501 14.7686C48.7501 9.16855 40.1501 6.4353 35.1501 5.76868C25.9501 -4.23132 18.3168 2.26875 15.6501 6.76879C8.85015 3.96879 7.81681 7.6022 8.15015 9.76891C4.15015 8.56891 3.15025 11.9356 3.1503 13.7689C-1.64965 16.5689 1.15032 22.2689 3.1503 24.7689C1.6503 27.2689 3.1503 31.7687 4.1503 31.2687Z" fill="white"/>
<path fill-rule="evenodd" clip-rule="evenodd" d="M23.0833 1.31361C19.8598 2.20466 17.375 4.83925 16.0803 7.02415L15.8597 7.3963L15.4598 7.23159C12.1022 5.84909 10.3763 6.14518 9.532 6.80155C8.67635 7.4667 8.48907 8.68425 8.64431 9.69334L8.76468 10.4757L8.00645 10.2483C7.07303 9.96825 6.35719 9.96713 5.81059 10.1133C5.26788 10.2585 4.85467 10.5586 4.53787 10.9476C3.88772 11.7459 3.65026 12.9157 3.65028 13.7694L3.65029 14.0565L3.40222 14.2013C2.29004 14.85 1.64558 15.6479 1.30922 16.5012C0.969926 17.3619 0.928998 18.3185 1.09343 19.2992C1.4245 21.2738 2.57214 23.2463 3.54072 24.457L3.7579 24.7285L3.57903 25.0266C2.92402 26.1183 2.90105 27.7166 3.20035 29.0334C3.34847 29.6852 3.56469 30.2167 3.77852 30.5406C3.87138 30.6813 3.94685 30.7569 3.9936 30.792C4.24466 30.693 4.49416 30.7375 4.68708 30.8172C4.89232 30.902 5.08358 31.0446 5.25361 31.199C5.59654 31.5104 5.95655 31.9662 6.29856 32.4591C6.8756 33.2906 7.45096 34.3004 7.87099 35.1031C12.6276 32.7559 19.8515 29.0243 26.6158 25.1842C30.1045 23.2038 33.4664 21.197 36.3026 19.3383C39.1467 17.4745 41.4351 15.7769 42.7966 14.4155C44.1472 13.0649 44.5453 11.9823 44.4678 11.1398C44.3902 10.2947 43.8188 9.52167 42.8365 8.82737C40.8633 7.43268 37.563 6.59527 35.084 6.26475L34.9047 6.24084L34.7822 6.10767C30.2748 1.20838 26.2501 0.438242 23.0833 1.31361ZM35.3954 5.29807C30.7489 0.312957 26.4019 -0.641205 22.8169 0.349755C19.4425 1.28252 16.8719 3.90591 15.4448 6.14856C12.2291 4.90013 10.1571 5.04897 8.91826 6.01204C7.88953 6.81174 7.5836 8.05827 7.59638 9.1179C6.82464 8.96968 6.14544 8.98862 5.5522 9.14728C4.78243 9.35317 4.19567 9.78426 3.7625 10.3161C2.99201 11.2621 2.70434 12.5261 2.65739 13.4841C1.50917 14.2124 0.777798 15.1224 0.378889 16.1344C-0.0443074 17.2081 -0.0783787 18.3577 0.107191 19.4645C0.451981 21.521 1.56842 23.5139 2.55496 24.8182C1.88131 26.1873 1.92257 27.9235 2.22521 29.2551C2.38959 29.9783 2.64212 30.6342 2.94392 31.0915C3.09261 31.3168 3.27703 31.5304 3.50191 31.665C3.72864 31.8007 4.01949 31.8644 4.3122 31.7444C4.36633 31.7684 4.45632 31.8258 4.58132 31.9393C4.83943 32.1737 5.14818 32.5554 5.477 33.0292C6.1293 33.9692 6.79232 35.1712 7.20307 35.9927L7.42511 36.4368L7.87074 36.2179C12.6275 33.8812 20.1116 30.0265 27.1095 26.0539C30.6084 24.0676 33.9902 22.0494 36.8508 20.1747C39.7035 18.3052 42.0652 16.5611 43.5037 15.1226C44.9531 13.6732 45.58 12.314 45.4637 11.0483C45.3476 9.78507 44.5064 8.78309 43.4137 8.01076C41.288 6.50829 37.9008 5.65051 35.3954 5.29807Z" fill="black"/>
<path d="M7.65039 70.7695L8.65039 19.2695L13.1504 16.7695C17.1504 19.9695 23.1504 17.4362 25.6504 15.7695L43.1504 14.7695L45.1504 17.2695L47.6504 69.7695C31.2504 81.3695 14.1504 75.2695 7.65039 70.7695Z" fill="#CBCCCE"/>
<path fill-rule="evenodd" clip-rule="evenodd" d="M43.3788 14.2549L45.6414 17.0831L48.1621 70.0187L47.9384 70.177C31.3086 81.9395 13.9707 75.753 7.36504 71.1799L7.14453 71.0272L8.15532 18.9714L13.2001 16.1688L13.462 16.3784C15.3041 17.852 17.6333 18.0296 19.8683 17.6027C22.1029 17.1759 24.1663 16.1567 25.3723 15.3528L25.4854 15.2774L43.3788 14.2549ZM25.8123 16.2603C24.5061 17.1096 22.3771 18.1416 20.0559 18.5849C17.7645 19.0226 15.2148 18.8974 13.1066 17.3647L9.14396 19.5662L8.1548 70.5082C14.6787 74.8975 31.218 80.6153 47.1371 69.5177L44.6579 17.4545L42.9205 15.2827L25.8123 16.2603Z" fill="black"/>
<path d="M11.6504 67.2695V34.7695C15.6504 37.1695 33.9837 35.7695 42.6504 34.7695L44.1504 65.7695C31.7504 72.9695 17.3171 69.7695 11.6504 67.2695Z" fill="#ECA412"/>
<path fill-rule="evenodd" clip-rule="evenodd" d="M11.1504 33.8857L11.9076 34.3401C12.3371 34.5978 12.9976 34.8244 13.8783 35.0096C14.7512 35.1931 15.8064 35.3292 17.0022 35.4235C19.3936 35.6121 22.3111 35.6313 25.3862 35.544C31.5345 35.3696 38.2696 34.771 42.5931 34.2721L43.124 34.2109L44.6645 66.0485L44.4015 66.2012C31.8094 73.5127 17.1934 70.2608 11.4486 67.7263L11.1504 67.5947V33.8857ZM12.1504 35.558V66.9401C17.8916 69.3651 31.6993 72.2595 43.6362 65.4875L42.1768 35.3259C37.8259 35.814 31.3529 36.3751 25.4146 36.5436C22.323 36.6314 19.3655 36.613 16.9236 36.4204C15.7027 36.3241 14.6017 36.1836 13.6725 35.9882C13.1086 35.8697 12.5949 35.7283 12.1504 35.558Z" fill="black"/>
<path fill-rule="evenodd" clip-rule="evenodd" d="M11.9908 22.1977C11.3456 22.3165 10.8189 22.7329 10.5406 23.0808L9.75977 22.4561C10.1481 21.9707 10.8715 21.3871 11.8096 21.2142C12.7836 21.0348 13.9031 21.3142 15.0038 22.4149L14.2966 23.122C13.3973 22.2227 12.6001 22.0855 11.9908 22.1977Z" fill="black"/>
<path fill-rule="evenodd" clip-rule="evenodd" d="M39.9908 20.8022C39.3456 20.921 38.8189 21.3374 38.5406 21.6853L37.7598 21.0606C38.1481 20.5752 38.8715 19.9916 39.8096 19.8187C40.7836 19.6393 41.9031 19.9187 43.0038 21.0194L42.2966 21.7265C41.3973 20.8272 40.6001 20.6899 39.9908 20.8022Z" fill="black"/>
<path fill-rule="evenodd" clip-rule="evenodd" d="M37.1504 65.7695V26.2695H38.1504V65.7695H37.1504Z" fill="black"/>
<path fill-rule="evenodd" clip-rule="evenodd" d="M26.6504 63.2695V26.2695H27.6504V63.2695H26.6504Z" fill="black"/>
<path fill-rule="evenodd" clip-rule="evenodd" d="M15.6504 65.2695V28.2695H16.6504V65.2695H15.6504Z" fill="black"/>
<path fill-rule="evenodd" clip-rule="evenodd" d="M19.9403 21.6311C18.8967 21.8796 18.0413 22.7552 17.5782 23.527L16.7207 23.0125C17.2576 22.1176 18.3022 20.9932 19.7086 20.6583C21.1795 20.3081 22.8611 20.8589 24.5399 22.9574L23.759 23.5821C22.2378 21.6806 20.9194 21.398 19.9403 21.6311Z" fill="black"/>
<path fill-rule="evenodd" clip-rule="evenodd" d="M30.3408 21.2396C29.2314 21.5342 28.4546 22.3501 28.087 23.0117L27.2129 22.526C27.6787 21.6876 28.6519 20.6535 30.0841 20.2731C31.5446 19.8852 33.3711 20.2054 35.4623 21.8784L34.8376 22.6593C32.9288 21.1322 31.422 20.9525 30.3408 21.2396Z" fill="black"/>
<path fill-rule="evenodd" clip-rule="evenodd" d="M41.6504 31.2695V23.2695H42.6504V31.2695H41.6504Z" fill="black"/>
<path fill-rule="evenodd" clip-rule="evenodd" d="M11.6504 32.2695V24.2695H12.6504V32.2695H11.6504Z" fill="black"/>
</svg>
