<svg width="62" height="62" viewBox="0 0 62 62" fill="none" xmlns="http://www.w3.org/2000/svg">
<circle cx="31.174" cy="30.8263" r="30.3263" fill="#EFE1CD" stroke="black"/>
<path d="M38.3738 40.9231C34.5724 34.7488 28.9046 31.249 21.9051 29.7922C19.4297 29.2801 16.9429 29.2858 14.5415 30.2304C12.8969 30.8791 12.6465 31.562 13.4204 33.2863C18.6785 32.04 23.5725 33.2009 28.1534 35.847C32.7685 38.5159 36.2113 42.2319 37.7763 47.5128C39.9728 46.8413 40.2574 46.4714 39.7281 44.4285C39.4152 43.2278 39.0225 41.9758 38.3738 40.9231Z" fill="black"/>
<path d="M42.5329 35.8982C37.6504 28.7849 30.7363 24.8072 22.2857 23.4756C20.0493 23.1228 17.7674 23.2195 15.6732 24.2894C14.6717 24.8015 13.7839 25.4559 13.5449 26.8444C20.1347 25.0291 26.0472 26.6339 31.6126 29.8605C37.2065 33.1041 41.5769 37.4574 43.2784 44.1496C44.462 43.1025 44.6726 41.8165 44.3653 40.6214C43.9442 38.9825 43.4662 37.2583 42.5329 35.8982Z" fill="black"/>
<path d="M13.8457 36.3531C14.2611 37.275 14.5343 38.3164 15.1545 39.0619C15.4675 39.4431 16.4179 39.2952 17.078 39.3862C17.1804 39.3976 17.2828 39.4147 17.3853 39.4261C23.2409 40.2967 27.8617 43.1307 31.1623 48.0758C31.3557 48.366 31.6687 48.7985 31.9248 48.7985C32.915 48.7928 33.9108 48.6392 34.9124 48.5424C33.4214 40.274 21.1183 33.4907 13.8457 36.3531Z" fill="black"/>
<path d="M45.237 29.4171C42.0104 24.9045 37.5604 21.8998 32.5071 19.7602C29.0074 18.2749 25.3824 17.3815 21.5356 17.8424C20.204 18.0018 18.9577 18.383 17.9277 19.248C31.0674 19.5781 40.952 25.2687 47.7466 36.5076C47.758 35.7622 47.8718 34.9313 47.5986 34.2598C46.9157 32.5925 46.267 30.8569 45.237 29.4171Z" fill="black"/>
<path d="M48.2624 27.0611C45.5878 16.8806 34.7187 11.9809 26.6836 14.4621C35.339 16.1692 42.4409 20.2949 48.2624 27.0611Z" fill="black"/>
<path d="M16.7148 41.7759C19.8219 45.7195 23.7712 48.0185 28.8359 48.764C26.901 45.1505 20.0837 41.241 16.7148 41.7759Z" fill="black"/>
</svg>
