<svg width="62" height="62" viewBox="0 0 62 62" fill="none" xmlns="http://www.w3.org/2000/svg">
<circle cx="30.8263" cy="30.8263" r="30.3263" fill="#EFE1CD" stroke="black"/>
<path fill-rule="evenodd" clip-rule="evenodd" d="M26.9893 16.6681C25.0665 17.6687 23.4934 18.5155 23.4938 18.5499C23.4946 18.6388 28.1085 20.9733 28.2723 20.9676C28.3468 20.9651 28.8872 20.7166 29.4731 20.4154L30.5386 19.8679L31.7023 20.4654L32.8659 21.0631L34.7715 20.2076C37.6429 18.9186 37.9412 18.7773 37.8944 18.7299C37.8324 18.6669 36.8025 18.1142 34.0082 16.6445C32.6578 15.9342 31.3471 15.2378 31.0955 15.0968C30.8439 14.9559 30.6037 14.8426 30.5618 14.8448C30.5198 14.847 28.9122 15.6675 26.9893 16.6681ZM18.556 21.031L16.5544 22.0639V26.5971C16.5544 29.0904 16.5807 31.1303 16.6129 31.1303C16.645 31.1303 17.6298 30.7038 18.8013 30.1826L20.9312 29.2349V24.4565L21.972 25.023C22.7741 25.4592 23.5766 25.8944 24.3796 26.3288L25.7463 27.0681L26.3545 26.7934C26.7359 26.6208 27.1165 26.4465 27.4964 26.2706C27.79 26.134 28.5105 25.8098 29.0977 25.5499C29.6848 25.2899 30.2283 25.0285 30.3053 24.9689C30.4077 24.8898 29.1594 24.2006 25.6881 22.4197C23.0716 21.0774 20.8468 19.9833 20.7442 19.9885C20.6416 19.9938 19.6569 20.4628 18.556 21.031ZM38.2551 21.321C36.8919 21.9359 35.7756 22.4635 35.7743 22.4936C35.7731 22.5236 36.5161 22.965 37.4255 23.4742C38.3349 23.9836 39.0789 24.4275 39.0789 24.461C39.0789 24.4943 38.2742 24.8839 37.2909 25.3267C36.3073 25.7695 33.8214 26.8911 31.7665 27.8192L24.881 30.9285C23.149 31.7108 21.5877 32.4158 21.4116 32.4955C17.8738 34.0955 16.9014 34.5395 16.7679 34.6157C16.6336 34.6924 16.6032 35.1381 16.5793 37.3754L16.5508 40.0437L18.3407 40.9549L20.1306 41.866L22.6125 40.7469C23.9777 40.1315 25.0945 39.5957 25.0945 39.5562C25.0945 39.5169 24.8422 39.3527 24.5341 39.1912C24.2258 39.0297 23.5893 38.6722 23.1196 38.3966C22.6499 38.121 22.1816 37.8681 22.0788 37.8346C21.976 37.8011 21.8934 37.7426 21.8951 37.7045C21.8968 37.6664 22.9897 37.1478 24.3237 36.5518C26.9146 35.3945 28.8974 34.5025 33.1542 32.5793C35.0577 31.7196 36.9614 30.8603 38.8654 30.0015C40.5387 29.247 42.4843 28.3657 43.1889 28.0432L44.4699 27.4568L44.4984 24.758L44.527 22.0594L42.7116 21.1285C41.713 20.6165 40.8595 20.1989 40.8148 20.2004C40.7701 20.2018 39.6182 20.7061 38.2551 21.321ZM43.9835 31.057C43.716 31.1875 43.1876 31.432 42.8092 31.6001C42.4309 31.7683 41.713 32.0919 41.2139 32.3194L40.3065 32.7328L40.2859 35.1021C40.2744 36.4051 40.2264 37.4655 40.1791 37.4586C40.0717 37.4426 38.3711 36.5713 36.6616 35.6561C35.4277 34.9957 35.3502 34.9694 35.0603 35.1129C34.8927 35.1959 33.8908 35.6447 32.834 36.1106C31.7771 36.5763 30.878 36.9878 30.8357 37.0251C30.7935 37.0623 32.9205 38.214 35.5625 39.5847L40.366 42.0767L42.418 41.0162C43.5465 40.433 44.5061 39.9011 44.5502 39.8341C44.6497 39.6837 44.6412 30.799 44.5416 30.811C44.5022 30.8157 44.251 30.9264 43.9835 31.057ZM32.6205 41.4854C32.2646 41.6383 31.9087 41.7914 31.553 41.9447C30.4787 42.409 30.6892 42.4244 29.4112 41.7888C28.56 41.3655 28.1931 41.2348 28.0338 41.2983C27.9143 41.3458 26.8862 41.8079 25.7489 42.3251C24.6117 42.8424 23.6417 43.2656 23.5935 43.2656C23.1163 43.2656 23.9096 43.7391 26.9706 45.2816L30.5604 47.0906L32.0708 46.3456C32.9016 45.9359 34.5771 45.1154 35.7944 44.5223C37.0116 43.9291 37.9924 43.4283 37.9741 43.4095C37.9556 43.3906 36.9357 42.8674 35.7075 42.2467L33.4745 41.1184L32.6205 41.4854Z" fill="black"/>
</svg>
