<svg width="62" height="62" viewBox="0 0 62 62" fill="none" xmlns="http://www.w3.org/2000/svg">
<circle cx="30.8263" cy="30.8263" r="30.3263" fill="#EFE1CD" stroke="black"/>
<path d="M45.3977 25.9076V39.0655L30.8374 47.5153L16.2712 39.0655V22.1659L30.8433 13.7043L42.0331 20.2037L43.7242 19.2256L30.8433 11.748L14.5859 21.1819V40.0437L30.8433 49.4775L47.1006 40.0437V24.9295L45.3977 25.9076Z" fill="black"/>
<path d="M26.7656 39.0773H24.332V30.8632H32.4519C33.2179 30.8573 33.9544 30.545 34.4965 29.9911C35.0386 29.4431 35.3392 28.7007 35.3451 27.9288C35.3509 27.5458 35.2743 27.1687 35.127 26.8151C34.9797 26.4616 34.7617 26.1434 34.4906 25.8782C34.2255 25.6071 33.9073 25.3891 33.5596 25.2418C33.212 25.0945 32.8349 25.0179 32.4519 25.0238H24.332V22.5254H32.4577C33.8778 22.5313 35.2449 23.1087 36.2466 24.1164C37.2542 25.1299 37.8199 26.4969 37.8317 27.9288C37.8376 29.0248 37.5076 30.0913 36.883 30.987C36.3055 31.8414 35.4924 32.5131 34.5437 32.9138C33.6009 33.2143 32.6227 33.3616 31.6387 33.3557H26.7656V39.0773Z" fill="black"/>
<path d="M37.7744 38.8712H34.9342L32.7422 35.0293C33.6084 34.9763 34.4628 34.7995 35.2818 34.5049L37.7744 38.8712Z" fill="black"/>
<path d="M43.7012 23.1739L45.3805 24.1108L47.0599 23.1739V21.1881L45.3805 20.21L43.7012 21.1881V23.1739Z" fill="black"/>
</svg>
