<svg width="62" height="62" viewBox="0 0 62 62" fill="none" xmlns="http://www.w3.org/2000/svg">
<circle cx="30.8263" cy="30.8263" r="30.3263" fill="#EFE1CD" stroke="black"/>
<path fill-rule="evenodd" clip-rule="evenodd" d="M33.3237 26.0581C34.3347 25.554 35.6211 24.8119 36.909 23.7952C37.1806 24.3591 37.2103 24.8512 37.0704 25.2486C36.9713 25.5286 36.7844 25.7722 36.5387 25.966C36.2727 26.1754 35.9404 26.3279 35.5731 26.4103C34.8762 26.5673 34.0626 26.4756 33.3237 26.0581ZM33.499 31.2233L34.8372 31.9963C32.1047 33.5279 31.3619 36.3717 30.4794 39.1416C29.5971 36.3717 28.8542 33.5279 26.1217 31.9963L27.46 31.2233C27.5895 31.1744 27.7001 31.0857 27.7761 30.9701C27.8521 30.8544 27.8895 30.7176 27.8831 30.5794C27.7604 27.9853 28.4609 26.8382 29.4056 26.1179C29.7445 25.8599 30.1145 25.7304 30.4794 25.7304C30.8444 25.7304 31.2143 25.8599 31.5533 26.1179C32.4981 26.8382 33.1985 27.9853 33.0759 30.5794C33.0694 30.7176 33.1069 30.8544 33.1828 30.9701C33.2588 31.0857 33.3695 31.1744 33.499 31.2233ZM30.4794 14.2852C32.0264 14.3267 33.5772 14.627 34.9231 15.2112C35.8551 15.6163 36.7247 16.1514 37.5122 16.7912C37.8678 17.0801 38.1606 17.3591 38.4832 17.6803C39.3531 17.7104 40.6246 16.7439 41.2148 15.8396C40.199 19.1699 35.5635 23.1027 32.3542 24.6075C32.3529 24.607 32.352 24.6062 32.351 24.6056C31.7751 24.1658 31.1273 23.9459 30.4794 23.9459C29.8315 23.9459 29.1839 24.1658 28.6079 24.6056C28.6069 24.6061 28.6061 24.6071 28.6047 24.6075C25.3954 23.1027 20.76 19.1699 19.7441 15.8396C20.3343 16.7439 21.6057 17.7104 22.4757 17.6803C22.7984 17.3592 23.0912 17.0801 23.4467 16.7912C24.2342 16.1514 25.1038 15.6163 26.0358 15.2112C27.3818 14.627 28.9326 14.3267 30.4794 14.2852ZM27.6352 26.0581C26.6243 25.554 25.3378 24.8119 24.05 23.7952C23.7784 24.3591 23.7487 24.8512 23.8885 25.2486C23.9877 25.5286 24.1746 25.7722 24.4201 25.966C24.6863 26.1754 25.0185 26.3279 25.3858 26.4103C26.0827 26.5673 26.8963 26.4756 27.6352 26.0581Z" fill="black"/>
<path fill-rule="evenodd" clip-rule="evenodd" d="M38.3206 22.5492C39.0296 21.8337 39.6544 21.0417 40.1567 20.335L40.4119 20.8152C41.2333 22.4585 41.66 24.0952 41.66 25.9372L41.6583 28.8601L41.6737 30.3753C41.7332 34.0952 42.5381 37.8588 44.3613 41.303L40.5466 38.2269L37.8474 42.607L35.0118 39.9376L30.4805 47.291L25.9491 39.9377L23.1136 42.6071L20.4144 38.227L16.5996 41.3031C18.4228 37.8589 19.2277 34.0953 19.2873 30.3754L19.3027 28.8602L19.301 25.9373C19.301 24.0952 19.7276 22.4585 20.5493 20.8153L20.8043 20.3351C21.3066 21.0418 21.9313 21.8337 22.6404 22.5493L22.419 23.0092C21.9888 23.9026 21.8463 24.9014 22.1815 25.8514C22.3975 26.4632 22.7918 26.988 23.3001 27.3885C23.7936 27.7775 24.3777 28.0397 24.9893 28.1774C25.3876 28.2671 25.7935 28.304 26.1967 28.2914C26.1026 28.8247 26.0615 29.3779 26.0589 29.9415L22.4604 32.0199L25.2372 33.5764C25.4592 33.7008 25.6705 33.8434 25.8689 34.0026C28.1583 36.0581 29.5347 42.1389 30.4806 45.1091C31.4266 42.1389 32.8029 36.0581 35.0923 34.0026C35.2908 33.8434 35.502 33.7008 35.724 33.5764L38.5008 32.0199L34.9023 29.9415C34.8996 29.3779 34.8585 28.8247 34.7645 28.2914C35.1677 28.304 35.5735 28.2671 35.9719 28.1774C36.5834 28.0397 37.1676 27.7775 37.661 27.3885C38.1692 26.988 38.5636 26.4632 38.7795 25.8514C39.1148 24.9014 38.9722 23.9027 38.5421 23.0092L38.3207 22.5493L38.3206 22.5492Z" fill="black"/>
</svg>
